<svg width="90" height="62" viewBox="0 0 90 62" fill="none" xmlns="http://www.w3.org/2000/svg">
<path d="M2.68751 0.00759521C1.22366 0.161005 -0.00786707 1.53556 7.03363e-06 3.00723V48.0017C0.000166634 49.5722 1.42926 51.0012 3.00001 51.0014H22V56.0008C20.5785 56.0007 19.0832 56.0008 17.6875 56.0008C16.1147 56.0798 14.7564 57.5845 14.8383 59.1569C14.9202 60.7293 16.4275 62.0848 18 62H50C51.5851 62.023 53.0431 60.5854 53.0431 59.0004C53.0431 57.4154 51.5851 55.9782 50 56.0008H46V51.0014H56V59.0004C56.0002 60.5709 57.4293 61.9998 59 62H87C88.5708 61.9998 89.9998 60.5709 90 59.0004V11.0063C89.9999 9.43568 88.5708 8.00678 87 8.00662H68V3.00723C67.9999 1.43666 66.5708 0.00775521 65 0.00759521H26C25.8959 0.00259521 25.7916 0.00259521 25.6875 0.00759521C24.1167 0.0893952 22.7619 1.59281 22.8438 3.16342C22.9256 4.73402 24.4292 6.08866 26 6.00686H62V8.00662C60.9106 8.0064 59.7517 8.00662 58.6875 8.00662C57.2237 8.16003 55.9921 9.53458 56 11.0063V35.0033H6.00001V6.00686H16C17.5849 6.02926 19.0427 4.59212 19.0427 3.00723C19.0427 1.42232 17.5849 -0.0148148 16 0.00759521C11.5759 0.00757521 7.08677 0.00759521 2.68751 0.00759521ZM62 14.0059H84V56.0008H62V14.0059ZM65.6875 18.0054C64.1167 18.0872 62.7619 19.5906 62.8438 21.1612C62.9256 22.7318 64.4292 24.0865 66 24.0047H80C81.5849 24.0271 83.0427 22.5899 83.0427 21.005C83.0427 19.4201 81.5849 17.983 80 18.0054C75.2422 18.0054 70.4207 18.0054 65.6875 18.0054ZM65.6875 27.0043C64.1167 27.0861 62.7619 28.5895 62.8438 30.1601C62.9256 31.7307 64.4292 33.0854 66 33.0036H80C81.5849 33.0256 83.0427 31.5888 83.0427 30.0039C83.0427 28.419 81.5849 26.9819 80 27.0043C75.2422 27.0043 70.4207 27.0043 65.6875 27.0043ZM6.00001 41.0025H56V45.002H6.00001V41.0025ZM73 44.0022C70.7909 44.0022 69 45.7927 69 48.0017C69 50.2106 70.7909 52.0012 73 52.0012C75.2092 52.0012 77 50.2106 77 48.0017C77 45.7927 75.2092 44.0022 73 44.0022ZM28 51.0014H40V56.0008H28V51.0014Z" fill="#43A047"/>
</svg>
