<svg width="90" height="62" viewBox="0 0 90 62" fill="none" xmlns="http://www.w3.org/2000/svg">
<path d="M2.68754 0.00375C1.22369 0.15716 -0.00783655 1.53171 3.75512e-05 3.00338V47.9979C0.000197151 49.5684 1.42929 50.9973 3.00004 50.9975H22V55.9969C20.5785 55.9968 19.0832 55.9969 17.6875 55.9969C16.1148 56.0759 14.7564 57.5806 14.8383 59.153C14.9202 60.7254 16.4276 62.081 18 61.9962H50C51.5851 62.0192 53.0431 60.5815 53.0431 58.9965C53.0431 57.4115 51.5851 55.9743 50 55.9969H46V50.9975H56V58.9965C56.0002 60.567 57.4293 61.996 59 61.9962H87C88.5708 61.996 89.9999 60.567 90 58.9965V11.0024C89.9999 9.43184 88.5708 8.00293 87 8.00277H68V3.00338C67.9999 1.43281 66.5708 0.00391 65 0.00375H26C25.896 -0.00125 25.7916 -0.00125 25.6875 0.00375C24.1167 0.08555 22.762 1.58896 22.8438 3.15957C22.9256 4.73017 24.4292 6.08482 26 6.00302H62V8.00277C60.9106 8.00255 59.7517 8.00277 58.6875 8.00277C57.2237 8.15618 55.9922 9.53074 56 11.0024V34.9994H6.00004V6.00302H16C17.585 6.02542 19.0428 4.58827 19.0428 3.00338C19.0428 1.41847 17.585 -0.01866 16 0.00375C11.576 0.00373 7.0868 0.00375 2.68754 0.00375ZM62 14.002H84V55.9969H62V14.002ZM65.6875 18.0016C64.1167 18.0834 62.762 19.5868 62.8438 21.1574C62.9256 22.728 64.4292 24.0826 66 24.0008H80C81.585 24.0232 83.0428 22.5861 83.0428 21.0012C83.0428 19.4163 81.585 17.9791 80 18.0016C75.2422 18.0015 70.4207 18.0016 65.6875 18.0016ZM65.6875 27.0005C64.1167 27.0823 62.762 28.5857 62.8438 30.1563C62.9256 31.7269 64.4292 33.0815 66 32.9997H80C81.585 33.0217 83.0428 31.585 83.0428 30.0001C83.0428 28.4152 81.585 26.978 80 27.0005C75.2422 27.0004 70.4207 27.0005 65.6875 27.0005ZM6.00004 40.9987H56V44.9982H6.00004V40.9987ZM73 43.9984C70.7909 43.9984 69 45.7889 69 47.9979C69 50.2068 70.7909 51.9974 73 51.9974C75.2092 51.9974 77 50.2068 77 47.9979C77 45.7889 75.2092 43.9984 73 43.9984ZM28 50.9975H40V55.9969H28V50.9975Z" fill="#EE764D"/>
</svg>
