<svg width="110" height="121" viewBox="0 0 110 121" fill="none" xmlns="http://www.w3.org/2000/svg">
<path d="M34.4441 94.7522C33.3386 94.7522 32.4441 93.8576 32.4441 92.7522C32.4441 91.6467 33.3386 90.7522 34.4441 90.7522H55.37C56.4755 90.7522 57.37 91.6467 57.37 92.7522C57.37 93.8576 56.4755 94.7522 55.37 94.7522H34.4441ZM31.4792 116.014C32.5847 116.014 33.4792 116.909 33.4792 118.014C33.4792 119.12 32.5847 120.014 31.4792 120.014H4.84619C3.74069 120.014 2.84619 119.12 2.84619 118.014V91.3812C2.84619 90.2757 3.74072 89.3812 4.84619 89.3812C5.94779 89.3812 6.84619 90.2757 6.84619 91.3812V116.014H31.4792ZM92.8462 91.3812C92.8462 90.2757 93.7407 89.3812 94.8462 89.3812C95.9478 89.3812 96.8462 90.2757 96.8462 91.3812V118.014C96.8462 118.545 96.6353 119.053 96.2603 119.428C95.8853 119.803 95.3736 120.014 94.8462 120.014H68.2092C67.1037 120.014 66.2092 119.12 66.2092 118.014C66.2092 116.909 67.1038 116.014 68.2092 116.014H92.8462V91.3812ZM68.2092 30.0102C67.1037 30.0102 66.2092 29.1156 66.2092 28.0102C66.2092 26.9047 67.1038 26.0102 68.2092 26.0102H94.8462C95.3735 26.0102 95.8854 26.2211 96.2604 26.5961C96.6354 26.9711 96.8463 27.4789 96.8463 28.0102V54.6512C96.8463 55.7528 95.9479 56.6512 94.8463 56.6512C93.7408 56.6512 92.8463 55.7528 92.8463 54.6512V30.0102L68.2092 30.0102ZM2.84229 28.0102H2.84619C2.84619 26.9047 3.74072 26.0102 4.84619 26.0102H31.4791C32.5846 26.0102 33.4791 26.9047 33.4791 28.0102C33.4791 29.1157 32.5846 30.0102 31.4791 30.0102H6.84619V54.6512C6.84619 55.7528 5.95166 56.6512 4.84619 56.6512C3.74069 56.6512 2.84619 55.7527 2.84619 54.6512L2.84229 28.0102ZM-1011.76 -78.9898H-1011.75C-1011.23 -78.9898 -1010.71 -78.7789 -1010.34 -78.4039C-1009.96 -78.0289 -1009.75 -77.5211 -1009.75 -76.9898C-1009.75 -76.4585 -1009.96 -75.9507 -1010.34 -75.5757C-1010.71 -75.2007 -1011.23 -74.9898 -1011.75 -74.9898H-1018.54V-68.2085V-68.2125C-1018.54 -67.6812 -1018.75 -67.1734 -1019.12 -66.7945C-1019.5 -66.4195 -1020 -66.2124 -1020.54 -66.2124C-1021.64 -66.2124 -1022.54 -67.107 -1022.54 -68.2124V-74.9936H-1029.32V-74.9897C-1030.42 -74.9897 -1031.32 -75.8843 -1031.32 -76.9897C-1031.32 -78.0952 -1030.42 -78.9897 -1029.32 -78.9897H-1022.54V-85.7709C-1022.54 -86.8764 -1021.64 -87.7709 -1020.54 -87.7709C-1020 -87.7709 -1019.5 -87.56 -1019.12 -87.185C-1018.75 -86.81 -1018.54 -86.3022 -1018.54 -85.7709V-78.9897L-1011.76 -78.9898ZM-221.878 96.3902C-221.346 96.3902 -220.839 96.6011 -220.464 96.9761C-220.089 97.3511 -219.878 97.8589 -219.878 98.3902C-219.878 98.9215 -220.089 99.4293 -220.464 99.8043C-220.839 100.179 -221.346 100.39 -221.878 100.39H-227.893V106.406C-227.893 106.937 -228.104 107.445 -228.479 107.82C-228.854 108.195 -229.362 108.406 -229.893 108.406C-230.995 108.406 -231.893 107.511 -231.893 106.406V100.394H-237.909H-237.905C-239.011 100.394 -239.905 99.4997 -239.905 98.3942C-239.905 97.2887 -239.011 96.3942 -237.905 96.3942H-231.89L-231.893 90.3747C-231.893 89.2731 -230.995 88.3747 -229.893 88.3747C-229.362 88.3747 -228.854 88.5856 -228.479 88.9606C-228.104 89.3356 -227.893 89.8473 -227.893 90.3747V96.3903L-221.878 96.3902ZM-217.44 85.9372H-217.436C-220.741 82.6325 -225.222 80.777 -229.897 80.777C-234.569 80.777 -239.05 82.6325 -242.354 85.9372C-245.655 89.2419 -247.511 93.7224 -247.511 98.3942C-247.511 103.066 -245.655 107.546 -242.354 110.851C-241.847 111.351 -241.311 111.824 -240.753 112.265L-240.737 112.277C-237.35 114.925 -233.108 116.242 -228.815 115.98C-224.522 115.718 -220.475 113.894 -217.432 110.851C-214.127 107.55 -212.268 103.066 -212.268 98.3942C-212.268 93.7224 -214.127 89.238 -217.432 85.9372L-217.44 85.9372ZM-274.44 70.8042H-274.436C-275.542 70.8042 -276.436 69.9096 -276.436 68.8042C-276.436 67.6987 -275.542 66.8042 -274.436 66.8042H-233.12C-232.589 66.8042 -232.081 67.0151 -231.706 67.3901C-231.331 67.7651 -231.12 68.2729 -231.12 68.8042C-231.12 69.3355 -231.331 69.8433 -231.706 70.2183C-232.081 70.5933 -232.589 70.8042 -233.12 70.8042L-274.44 70.8042ZM-274.44 56.6242H-274.436C-275.542 56.6242 -276.436 55.7296 -276.436 54.6242C-276.436 53.5226 -275.542 52.6242 -274.436 52.6242H-252.733H-252.737C-252.206 52.6242 -251.698 52.8351 -251.323 53.2101C-250.948 53.5851 -250.737 54.0968 -250.737 54.6242C-250.737 55.1555 -250.948 55.6672 -251.323 56.0422C-251.698 56.4172 -252.206 56.6242 -252.737 56.6242L-274.44 56.6242ZM-274.44 84.9872L-274.436 84.9911C-275.542 84.9911 -276.436 84.0926 -276.436 82.9911C-276.436 81.8856 -275.542 80.9911 -274.436 80.9911H-255.295H-255.299C-254.768 80.9911 -254.26 81.202 -253.885 81.577C-253.51 81.952 -253.299 82.4598 -253.299 82.9911C-253.299 83.5185 -253.51 84.0302 -253.885 84.4052C-254.26 84.7802 -254.768 84.9911 -255.299 84.9911L-274.44 84.9872ZM-274.44 99.1712L-274.436 99.1751C-275.542 99.1751 -276.436 98.2805 -276.436 97.1751C-276.436 96.0696 -275.542 95.1751 -274.436 95.1751H-258.291C-257.76 95.1751 -257.252 95.386 -256.877 95.761C-256.502 96.136 -256.291 96.6438 -256.291 97.1751C-256.291 97.7064 -256.502 98.2142 -256.877 98.5892C-257.252 98.9642 -257.76 99.1752 -258.291 99.1752L-274.44 99.1712ZM-236.713 50.5302H-222.248L-239.936 32.8352V47.2882C-239.932 49.0773 -238.483 50.5265 -236.694 50.5304L-236.713 50.5302ZM-219.416 79.4792V54.5342H-236.701C-240.701 54.5264 -243.94 51.2881 -243.943 47.2881V30.0111H-284.873C-286.663 30.015 -288.112 31.4681 -288.116 33.2572V108.597C-288.112 110.386 -286.663 111.835 -284.873 111.839H-246.818C-249.865 108.023 -251.518 103.281 -251.51 98.3944C-251.51 92.66 -249.233 87.1644 -245.178 83.1094C-241.123 79.0547 -235.623 76.7774 -229.893 76.7774C-226.225 76.7735 -222.619 77.7031 -219.416 79.4805L-219.416 79.4792ZM-86.8463 70.9948C-87.4322 71.4674 -88.2369 71.5729 -88.9244 71.2643L-97.4478 67.9674C-98.4712 67.5651 -98.983 66.4127 -98.5884 65.3854C-98.186 64.362 -97.0336 63.8542 -96.0063 64.2487L-92.0962 65.7604C-97.2212 59.1159 -107.53 59.7292 -111.776 67.0612H-111.772C-113.35 69.7839 -113.78 73.0221 -112.971 76.0651C-112.159 79.1081 -110.171 81.7018 -107.448 83.276C-100.647 87.2174 -91.9711 83.5651 -90.0031 76.0026V76.0065C-89.7257 74.9401 -88.6398 74.3034 -87.5734 74.5768C-86.507 74.8541 -85.8703 75.944 -86.1437 77.0065C-88.7726 87.1115 -100.355 91.9945 -109.449 86.7292L-109.453 86.7331C-113.089 84.6237 -115.746 81.1511 -116.828 77.0886C-117.91 73.0222 -117.331 68.6902 -115.222 65.0536C-113.113 61.413 -109.648 58.7606 -105.581 57.6786C-101.519 56.5966 -97.1908 57.1708 -93.5544 59.2763C-91.8317 60.2724 -90.3162 61.5849 -89.0779 63.1396L-88.5505 59.9834H-88.5544C-88.363 58.8975 -87.3357 58.167 -86.2498 58.3506C-85.1639 58.5381 -84.4333 59.5615 -84.6091 60.6475L-86.1325 69.7686H-86.1364C-86.2106 70.253 -86.4645 70.6866 -86.8434 70.9952L-86.8463 70.9948ZM-109.006 107.616C-110.112 107.616 -111.006 106.721 -111.006 105.616C-111.006 104.514 -110.112 103.616 -109.006 103.616H-91.3812C-90.85 103.616 -90.3422 103.827 -89.9672 104.202C-89.5922 104.577 -89.3812 105.088 -89.3812 105.616C-89.3812 106.147 -89.5922 106.655 -89.9672 107.03C-90.3422 107.405 -90.8499 107.616 -91.3812 107.616L-109.006 107.616ZM-116.381 100.014V100.018C-117.487 100.018 -118.381 99.1235 -118.381 98.0181C-118.381 96.9126 -117.487 96.0181 -116.381 96.0181H-84.0103C-83.479 96.0181 -82.9712 96.229 -82.5962 96.604C-82.2212 96.979 -82.0102 97.4868 -82.0102 98.0181C-82.0102 98.5494 -82.2212 99.0572 -82.5962 99.4322C-82.9712 99.8072 -83.479 100.018 -84.0103 100.018L-116.381 100.014ZM-82.2953 51.7252H-66.9083L-85.7913 32.8422V48.2292H-85.7952C-85.7913 50.1589 -84.2288 51.7214 -82.2991 51.7292L-82.2953 51.7252ZM-89.7953 30.0102H-132.795L-132.799 30.0141C-134.729 30.018 -136.295 31.5844 -136.303 33.518V112.518C-136.295 114.448 -134.729 116.01 -132.799 116.014H-67.5721C-65.6424 116.01 -64.0799 114.448 -64.0721 112.518V55.725H-82.2952C-86.4319 55.7172 -89.7874 52.3656 -89.7952 48.225L-89.7953 30.0102ZM328.155 72.7872C327.049 72.7872 326.155 71.8926 326.155 70.7872C326.155 69.6856 327.049 68.7872 328.155 68.7872H371.479C372.58 68.7872 373.479 69.6856 373.479 70.7872C373.479 71.8927 372.58 72.7872 371.479 72.7872H328.155ZM328.155 57.9162V57.9201C327.049 57.9201 326.155 57.0255 326.155 55.9201C326.155 54.8146 327.049 53.9201 328.155 53.9201H350.913H350.909C352.014 53.9201 352.909 54.8146 352.909 55.9201C352.909 57.0255 352.014 57.9201 350.909 57.9201L328.155 57.9162ZM328.155 87.6582V87.6621C327.049 87.6621 326.155 86.7636 326.155 85.6621C326.155 84.5566 327.049 83.6621 328.155 83.6621H345.085H345.081C346.186 83.6621 347.081 84.5566 347.081 85.6621C347.081 86.7637 346.186 87.6621 345.081 87.6621L328.155 87.6582ZM328.155 102.533V102.537C327.049 102.537 326.155 101.643 326.155 100.537C326.155 99.4316 327.049 98.5371 328.155 98.5371H345.085H345.081C346.186 98.5371 347.081 99.4316 347.081 100.537C347.081 101.643 346.186 102.537 345.081 102.537L328.155 102.533ZM367.714 51.7212H383.101L364.218 32.8382V48.2252H364.214C364.222 50.1549 365.784 51.7174 367.714 51.7252L367.714 51.7212ZM373.858 85.8502C374.675 85.1822 375.866 85.2603 376.589 86.0259C377.311 86.7955 377.311 87.9907 376.593 88.7603L363.64 100.998V101.002C363.253 101.366 362.741 101.561 362.21 101.545C361.683 101.53 361.183 101.303 360.819 100.916L355.065 94.971C354.37 94.1663 354.425 92.9554 355.19 92.2171C355.96 91.4827 357.171 91.4749 357.944 92.2015L362.331 96.7445L373.858 85.8502ZM190.988 107.616C189.883 107.616 188.988 106.722 188.988 105.616C188.988 104.515 189.883 103.616 190.988 103.616H208.613C209.719 103.616 210.613 104.515 210.613 105.616C210.613 106.722 209.719 107.616 208.613 107.616H190.988ZM183.617 100.015V100.018C182.516 100.018 181.617 99.1239 181.617 98.0185C181.617 96.913 182.516 96.0185 183.617 96.0185H215.984C217.09 96.0185 217.984 96.913 217.984 98.0185C217.984 99.1239 217.09 100.018 215.984 100.018L183.617 100.015ZM209.629 81.2136V81.2175C209.629 80.112 210.524 79.2175 211.629 79.2175C212.735 79.2175 213.629 80.112 213.629 81.2175V85.8308C213.629 86.362 213.418 86.8699 213.043 87.2449C212.668 87.6199 212.16 87.8308 211.629 87.8308H188.231C187.067 87.8308 186.169 86.8933 186.243 85.6199L186.313 81.2957V81.2918C186.415 80.2566 187.294 79.4715 188.333 79.491C189.376 79.5066 190.227 80.3152 190.297 81.3543L190.258 83.8309H209.629L209.629 81.2136ZM217.703 51.7176H233.09L214.207 32.8346V48.2216H214.203C214.207 50.1513 215.774 51.7177 217.703 51.7216V51.7176ZM-420.887 73.1156V73.1195C-421.992 73.1195 -422.887 72.2249 -422.887 71.1195C-422.887 70.014 -421.992 69.1195 -420.887 69.1195H-379.508C-378.976 69.1195 -378.469 69.3304 -378.094 69.7054C-377.719 70.0804 -377.508 70.5882 -377.508 71.1195C-377.508 71.6508 -377.719 72.1586 -378.094 72.5336C-378.469 72.9086 -378.976 73.1196 -379.508 73.1196L-420.887 73.1156ZM-420.887 58.9166V58.9205C-421.992 58.9205 -422.887 58.0259 -422.887 56.9205C-422.887 55.815 -421.992 54.9205 -420.887 54.9205H-399.153C-398.621 54.9205 -398.114 55.1314 -397.739 55.5064C-397.364 55.8814 -397.153 56.3892 -397.153 56.9205C-397.153 57.4518 -397.364 57.9596 -397.739 58.3346C-398.114 58.7096 -398.621 58.9206 -399.153 58.9206L-420.887 58.9166ZM-420.887 87.3146V87.3185C-421.992 87.3185 -422.887 86.424 -422.887 85.3185C-422.887 84.213 -421.992 83.3185 -420.887 83.3185H-379.508C-378.976 83.3185 -378.469 83.5294 -378.094 83.9044C-377.719 84.2794 -377.508 84.7872 -377.508 85.3185C-377.508 85.8498 -377.719 86.3576 -378.094 86.7326C-378.469 87.1076 -378.976 87.3185 -379.508 87.3185L-420.887 87.3146ZM-420.887 101.514V101.517C-421.992 101.517 -422.887 100.623 -422.887 99.5175C-422.887 98.4159 -421.992 97.5175 -420.887 97.5175H-392.774C-392.242 97.5175 -391.735 97.7284 -391.36 98.1034C-390.985 98.4784 -390.774 98.9901 -390.774 99.5175C-390.774 100.049 -390.985 100.557 -391.36 100.932C-391.735 101.307 -392.242 101.518 -392.774 101.518L-420.887 101.514ZM-703.287 65.7866L-703.291 65.7905C-703.291 64.685 -702.392 63.7905 -701.291 63.7905C-700.759 63.7905 -700.251 64.0014 -699.873 64.3764C-699.498 64.7514 -699.291 65.2592 -699.291 65.7905V74.1772L-695.146 76.5756C-694.197 77.1264 -693.869 78.3412 -694.412 79.2983C-694.962 80.2475 -696.173 80.5756 -697.13 80.0327L-702.13 77.146V77.1499C-702.841 76.8218 -703.298 76.1108 -703.298 75.3296L-703.287 65.7866ZM-690.174 62.9624L-690.178 62.9663C-695.717 57.4272 -704.698 57.4272 -710.237 62.9663C-715.776 68.5054 -715.776 77.4863 -710.237 83.0253C-707.576 85.6855 -703.967 87.1776 -700.206 87.1776C-696.444 87.1776 -692.838 85.6854 -690.179 83.0253C-687.518 80.3651 -686.022 76.7558 -686.022 72.9943C-686.022 69.2326 -687.518 65.6271 -690.179 62.9673L-690.174 62.9624ZM-700.205 54.814C-695.384 54.814 -690.759 56.732 -687.35 60.1421C-683.939 63.5483 -682.025 68.1733 -682.021 72.9971C-682.021 77.8174 -683.939 82.4463 -687.346 85.8561C-690.756 89.2663 -695.381 91.1842 -700.205 91.1842C-705.029 91.1842 -709.654 89.2662 -713.068 85.8561C-716.478 82.4459 -718.392 77.8209 -718.392 72.9971C-718.392 68.1729 -716.474 63.5479 -713.064 60.1381C-709.654 56.7279 -705.028 54.814 -700.205 54.814ZM-709.017 107.599L-709.021 107.603C-710.126 107.603 -711.021 106.708 -711.021 105.603C-711.021 104.497 -710.126 103.603 -709.021 103.603H-691.396C-690.865 103.603 -690.357 103.814 -689.982 104.189C-689.607 104.564 -689.396 105.072 -689.396 105.603C-689.396 106.134 -689.607 106.642 -689.982 107.017C-690.357 107.392 -690.865 107.603 -691.396 107.603L-709.017 107.599ZM-716.388 99.9975L-716.392 100.001C-717.494 100.001 -718.392 99.1068 -718.392 98.0014C-718.392 96.8959 -717.494 96.0014 -716.392 96.0014H-684.017C-683.49 96.0014 -682.978 96.2123 -682.603 96.5873C-682.228 96.9623 -682.017 97.4701 -682.017 98.0014C-682.017 98.5327 -682.228 99.0405 -682.603 99.4155C-682.978 99.7905 -683.49 100.001 -684.017 100.001L-716.388 99.9975ZM-682.302 51.7085H-666.915L-685.798 32.8255V48.2125L-685.806 48.2164C-685.802 50.1461 -684.236 51.7086 -682.306 51.7125L-682.302 51.7085ZM-689.802 29.9935H-732.818L-732.822 29.9974C-734.752 30.0052 -736.314 31.5716 -736.318 33.5013V112.501C-736.314 114.431 -734.752 115.993 -732.822 116.001H-667.595C-665.665 115.997 -664.099 114.435 -664.091 112.501V55.7243H-682.31C-686.451 55.7165 -689.802 52.3649 -689.81 48.2243L-689.802 29.9935ZM-561.692 67.0055L-561.696 67.0094C-562.802 67.0094 -563.696 66.1148 -563.696 65.0094C-563.696 63.9039 -562.802 63.0094 -561.696 63.0094H-526.176H-526.18C-525.649 63.0094 -525.141 63.2203 -524.766 63.5953C-524.391 63.9703 -524.18 64.4781 -524.18 65.0094C-524.18 65.5407 -524.391 66.0485 -524.766 66.4235C-525.141 66.7985 -525.649 67.0095 -526.18 67.0095L-561.692 67.0055ZM-561.692 54.8065L-561.696 54.8104C-562.802 54.8104 -563.696 53.9119 -563.696 52.8104C-563.696 51.7049 -562.802 50.8104 -561.696 50.8104H-543.04C-542.509 50.8104 -542.001 51.0213 -541.626 51.3963C-541.251 51.7713 -541.04 52.2791 -541.04 52.8104C-541.04 53.3377 -541.251 53.8495 -541.626 54.2245C-542.001 54.5995 -542.509 54.8105 -543.04 54.8105L-561.692 54.8065ZM-561.692 79.1895L-561.696 79.1934C-562.802 79.1934 -563.696 78.2988 -563.696 77.1934C-563.696 76.0879 -562.802 75.1934 -561.696 75.1934H-526.176H-526.18C-525.649 75.1934 -525.141 75.4043 -524.766 75.7793C-524.391 76.1543 -524.18 76.6621 -524.18 77.1934C-524.18 77.7247 -524.391 78.2325 -524.766 78.6075C-525.141 78.9825 -525.649 79.1935 -526.18 79.1935L-561.692 79.1895ZM-561.692 91.3885L-561.696 91.3924C-562.802 91.3924 -563.696 90.4978 -563.696 89.3924C-563.696 88.2869 -562.802 87.3924 -561.696 87.3924H-526.176H-526.18C-525.649 87.3924 -525.141 87.6033 -524.766 87.9783C-524.391 88.3533 -524.18 88.8611 -524.18 89.3924C-524.18 89.9237 -524.391 90.4315 -524.766 90.8065C-525.141 91.1815 -525.649 91.3925 -526.18 91.3925L-561.692 91.3885ZM-528.571 48.0765H-516.051L-531.297 32.8345V45.3575V45.3536C-531.289 46.8575 -530.075 48.0765 -528.571 48.0765ZM-535.29 30.0025H-571.923C-573.431 30.0025 -574.65 31.2252 -574.65 32.733V100.542C-574.646 102.042 -573.431 103.261 -571.927 103.265H-515.943C-514.443 103.257 -513.228 102.042 -513.224 100.542V52.077H-528.583C-532.29 52.0731 -535.294 49.0692 -535.302 45.3582L-535.29 30.0025ZM-578.642 42.7605H-584.451C-585.951 42.7644 -587.165 43.9753 -587.169 45.4753V113.291C-587.165 114.791 -585.951 116.006 -584.451 116.014H-528.467C-526.967 116.01 -525.748 114.791 -525.744 113.291V107.26H-571.916C-575.623 107.252 -578.627 104.248 -578.635 100.541L-578.642 42.7605ZM-832.302 51.7175H-816.915L-835.798 32.8345V48.2215H-835.802C-835.794 50.1512 -834.232 51.7136 -832.302 51.7175ZM-866.38 100.006C-867.485 100.006 -868.38 99.1119 -868.38 98.0065C-868.38 96.9049 -867.485 96.0065 -866.38 96.0065H-834.013C-833.486 96.0065 -832.974 96.2174 -832.599 96.5924C-832.224 96.9674 -832.013 97.4752 -832.013 98.0065C-832.013 98.5378 -832.224 99.0456 -832.599 99.4206C-832.974 99.7956 -833.486 100.007 -834.013 100.007L-866.38 100.006ZM-840.38 81.2055C-840.38 80.1039 -839.485 79.2055 -838.38 79.2055C-837.849 79.2055 -837.341 79.4164 -836.966 79.7914C-836.591 80.1664 -836.38 80.6781 -836.38 81.2055V85.8227C-836.38 86.35 -836.591 86.8618 -836.966 87.2368C-837.341 87.6118 -837.849 87.8228 -838.38 87.8228H-861.778C-862.942 87.8228 -863.848 86.8852 -863.766 85.6118L-863.696 81.2876V81.2837C-863.676 80.186 -862.774 79.3071 -861.673 79.3228C-860.575 79.3424 -859.7 80.2447 -859.712 81.3462L-859.759 83.8228H-840.38L-840.38 81.2055ZM-859.157 71.0215V71.0254C-859.532 70.6504 -859.743 70.1426 -859.743 69.6113C-859.743 69.08 -859.532 68.5683 -859.157 68.1933C-858.376 67.4159 -857.11 67.4159 -856.329 68.1933L-852.149 72.3769L-852.333 60.1929H-852.329C-852.337 59.6655 -852.134 59.1577 -851.762 58.7827C-851.395 58.4038 -850.891 58.1889 -850.364 58.1811C-849.262 58.1694 -848.36 59.0522 -848.345 60.1499L-848.157 72.5209L-843.833 68.1967V68.1928C-843.052 67.4155 -841.79 67.4155 -841.009 68.1928C-840.634 68.5678 -840.423 69.0795 -840.423 69.6108C-840.423 70.1421 -840.634 70.6499 -841.009 71.0249L-848.669 78.689C-849.45 79.4703 -850.716 79.4703 -851.497 78.689L-859.157 71.0215ZM-839.805 29.9905L-882.809 29.9944C-884.743 30.0022 -886.305 31.5686 -886.309 33.4983V112.498C-886.305 114.428 -884.739 115.994 -882.809 115.998H-817.582C-815.652 115.994 -814.09 114.428 -814.086 112.498V55.7253H-832.313C-836.45 55.7175 -839.801 52.362 -839.805 48.2253L-839.805 29.9905ZM-975.645 91.2915V91.2993C-974.864 90.518 -973.598 90.518 -972.817 91.2993C-972.442 91.6743 -972.231 92.1821 -972.231 92.7134C-972.231 93.2447 -972.442 93.7525 -972.817 94.1275L-977.075 98.3814L-972.817 102.639C-972.036 103.417 -972.036 104.686 -972.817 105.467C-973.598 106.245 -974.864 106.245 -975.645 105.467L-979.903 101.209L-984.145 105.479C-984.926 106.252 -986.188 106.252 -986.973 105.479C-987.754 104.698 -987.754 103.432 -986.973 102.651L-982.719 98.3931L-986.973 94.1392C-987.348 93.7642 -987.559 93.2564 -987.559 92.7251C-987.559 92.1938 -987.348 91.686 -986.973 91.311C-986.598 90.9321 -986.09 90.7211 -985.559 90.7211C-985.028 90.7211 -984.52 90.9321 -984.145 91.311L-979.891 95.5649L-975.645 91.2915ZM-967.446 85.9165L-967.442 85.9243C-970.747 82.6196 -975.227 80.7641 -979.903 80.7641C-984.575 80.7641 -989.055 82.6196 -992.36 85.9243C-995.665 89.229 -997.52 93.7095 -997.52 98.3813C-997.52 103.053 -995.665 107.537 -992.36 110.838C-991.856 111.342 -991.321 111.811 -990.758 112.252L-990.743 112.264C-987.356 114.912 -983.114 116.229 -978.821 115.967C-974.528 115.705 -970.481 113.881 -967.438 110.838C-964.133 107.534 -962.277 103.053 -962.277 98.3813C-962.277 93.7095 -964.133 89.229 -967.438 85.9243L-967.446 85.9165ZM-1024.45 70.7835L-1024.44 70.7913C-1025.55 70.7913 -1026.44 69.8967 -1026.44 68.7913C-1026.44 67.6858 -1025.55 66.7913 -1024.44 66.7913H-983.13H-983.134C-982.603 66.7913 -982.095 67.0022 -981.72 67.3772C-981.345 67.7522 -981.134 68.26 -981.134 68.7913C-981.134 69.3226 -981.345 69.8304 -981.72 70.2054C-982.095 70.5804 -982.602 70.7914 -983.134 70.7914L-1024.45 70.7835ZM-1024.45 56.6035L-1024.44 56.6113C-1025.55 56.6113 -1026.44 55.7168 -1026.44 54.6113C-1026.44 53.5097 -1025.55 52.6113 -1024.44 52.6113H-1002.75C-1002.22 52.6113 -1001.71 52.8222 -1001.33 53.1972C-1000.96 53.5722 -1000.75 54.0839 -1000.75 54.6113C-1000.75 55.1426 -1000.96 55.6504 -1001.33 56.0254C-1001.71 56.4004 -1002.22 56.6114 -1002.75 56.6114L-1024.45 56.6035ZM-1024.45 84.9665L-1024.44 84.9782C-1025.55 84.9782 -1026.44 84.0797 -1026.44 82.9782C-1026.44 81.8727 -1025.55 80.9782 -1024.44 80.9782H-1005.31C-1004.78 80.9782 -1004.27 81.1891 -1003.89 81.5641C-1003.52 81.9391 -1003.31 82.4469 -1003.31 82.9782C-1003.31 83.5056 -1003.52 84.0173 -1003.89 84.3923C-1004.27 84.7673 -1004.78 84.9783 -1005.31 84.9783L-1024.45 84.9665ZM-1024.45 99.1505L-1024.44 99.1622C-1025.55 99.1622 -1026.44 98.2637 -1026.44 97.1622C-1026.44 96.0567 -1025.55 95.1622 -1024.44 95.1622H-1008.3H-1008.3C-1007.77 95.1622 -1007.27 95.3731 -1006.89 95.7481C-1006.52 96.1231 -1006.3 96.6309 -1006.3 97.1622C-1006.3 97.6896 -1006.52 98.2013 -1006.89 98.5763C-1007.27 98.9513 -1007.77 99.1623 -1008.3 99.1623L-1024.45 99.1505ZM-986.723 50.5095L-972.246 50.5173L-989.941 32.8223V47.2713L-989.937 47.2752C-989.937 49.0643 -988.488 50.5135 -986.699 50.5174L-986.723 50.5095ZM-969.414 79.4785V54.5335H-986.703C-990.699 54.5257 -993.937 51.2874 -993.945 47.2874V30.0104H-1034.87C-1036.66 30.0143 -1038.11 31.4674 -1038.12 33.2565V108.596C-1038.11 110.389 -1036.66 111.839 -1034.87 111.839H-996.816C-999.859 108.018 -1001.52 103.28 -1001.51 98.3937C-1001.51 92.6593 -999.23 87.1637 -995.175 83.1087C-991.125 79.054 -985.625 76.7767 -979.89 76.7767C-976.226 76.7689 -972.621 77.6985 -969.413 79.4798L-969.414 79.4785ZM325.986 -69.5615C324.885 -69.5615 323.986 -70.4561 323.986 -71.5615C323.986 -72.667 324.885 -73.5615 325.986 -73.5615H360.908C361.439 -73.5615 361.947 -73.3506 362.322 -72.9756C362.697 -72.6006 362.908 -72.0928 362.908 -71.5615C362.908 -71.0302 362.697 -70.5224 362.322 -70.1474C361.947 -69.7724 361.439 -69.5615 360.908 -69.5615L325.986 -69.5615ZM325.986 -81.5455C324.885 -81.5455 323.986 -82.4401 323.986 -83.5455C323.986 -84.651 324.885 -85.5455 325.986 -85.5455H344.33C344.861 -85.5455 345.369 -85.3346 345.748 -84.9596C346.123 -84.5846 346.33 -84.0768 346.33 -83.5455C346.33 -83.0142 346.123 -82.5064 345.748 -82.1314C345.369 -81.7564 344.861 -81.5455 344.33 -81.5455L325.986 -81.5455ZM325.986 -57.5685C324.885 -57.5685 323.986 -58.4631 323.986 -59.5685C323.986 -60.674 324.885 -61.5685 325.986 -61.5685H360.908C361.439 -61.5685 361.947 -61.3576 362.322 -60.9826C362.697 -60.6076 362.908 -60.0998 362.908 -59.5685C362.908 -59.0372 362.697 -58.5294 362.322 -58.1544C361.947 -57.7794 361.439 -57.5685 360.908 -57.5685L325.986 -57.5685ZM325.986 -45.5845C324.885 -45.5845 323.986 -46.483 323.986 -47.5845C323.986 -48.69 324.885 -49.5845 325.986 -49.5845H360.908C361.439 -49.5845 361.947 -49.3736 362.322 -48.9986C362.697 -48.6236 362.908 -48.1158 362.908 -47.5845C362.908 -47.0532 362.697 -46.5454 362.322 -46.1704C361.947 -45.7954 361.439 -45.5844 360.908 -45.5844L325.986 -45.5845ZM358.548 -88.2405H370.786L355.915 -103.124V-90.8895C355.919 -89.4325 357.099 -88.2528 358.552 -88.2489L358.548 -88.2405ZM371.325 -102.288H383.559L368.688 -117.159L368.692 -104.925C368.696 -103.468 369.872 -102.288 371.329 -102.28L371.325 -102.288ZM377.603 -48.0335H383.751C385.208 -48.0413 386.388 -49.221 386.392 -50.6741V-98.2871H371.322C367.665 -98.2989 364.7 -101.264 364.693 -104.924V-119.983H328.693C327.24 -119.975 326.06 -118.795 326.056 -117.338V-109.94H353.935C354.357 -109.94 354.771 -109.799 355.107 -109.538L355.134 -109.518L355.154 -109.502C355.216 -109.452 355.271 -109.401 355.329 -109.342L377.021 -87.6513V-87.6552C377.036 -87.6357 377.056 -87.6161 377.075 -87.6005C377.091 -87.5888 377.103 -87.5732 377.114 -87.5614C377.474 -87.1552 377.649 -86.6239 377.599 -86.0848V-48.0378L377.603 -48.0335ZM373.618 -45.8538V-45.8577C373.614 -45.9163 373.614 -45.9749 373.618 -46.0335C373.614 -46.0921 373.614 -46.1507 373.618 -46.2093V-84.2443H358.552C354.888 -84.2482 351.919 -87.217 351.911 -90.8849V-105.944L315.927 -105.94C314.47 -105.94 313.295 -104.76 313.291 -103.307V-36.6272C313.295 -35.1702 314.47 -33.9905 315.927 -33.9866H370.975C372.432 -33.9905 373.611 -35.1702 373.615 -36.6272L373.618 -45.8538ZM193.298 -43.2679C192.193 -43.2679 191.298 -44.1625 191.298 -45.2679C191.298 -46.3734 192.193 -47.2679 193.298 -47.2679H215.407C215.938 -47.2679 216.446 -47.057 216.821 -46.682C217.196 -46.307 217.407 -45.7992 217.407 -45.2679C217.407 -44.7366 217.196 -44.2288 216.821 -43.8538C216.446 -43.4788 215.938 -43.2679 215.407 -43.2679L193.298 -43.2679ZM211.376 -63.8699L210.61 -59.4207L214.079 -62.3074L211.376 -63.8699ZM242.814 -110.35L238.615 -112.776L238.599 -112.748L235.74 -107.799L239.939 -105.366L242.74 -110.213L242.814 -110.35ZM170.826 -77.1509H170.822C169.721 -77.1509 168.822 -78.0455 168.822 -79.1509C168.822 -80.2525 169.721 -81.1509 170.822 -81.1509H207.08C207.611 -81.1509 208.119 -80.94 208.494 -80.565C208.869 -80.19 209.08 -79.6783 209.08 -79.1509C209.08 -78.6196 208.869 -78.1118 208.494 -77.7368C208.119 -77.3618 207.611 -77.1509 207.08 -77.1509L170.826 -77.1509ZM170.826 -91.5959H170.822C169.721 -91.5959 168.822 -92.4905 168.822 -93.5959C168.822 -94.7014 169.721 -95.5959 170.822 -95.5959H192.931C193.459 -95.5959 193.97 -95.385 194.345 -95.01C194.72 -94.635 194.931 -94.1272 194.931 -93.5959C194.931 -93.0646 194.72 -92.5568 194.345 -92.1818C193.97 -91.8068 193.459 -91.5959 192.931 -91.5959L170.826 -91.5959ZM170.826 -62.7049H170.822C169.721 -62.7049 168.822 -63.5995 168.822 -64.7049C168.822 -65.8104 169.721 -66.7049 170.822 -66.7049H200.963C201.495 -66.7049 202.002 -66.494 202.377 -66.119C202.752 -65.744 202.963 -65.2362 202.963 -64.7049C202.963 -64.1736 202.752 -63.6658 202.377 -63.2908C202.002 -62.9158 201.495 -62.7049 200.963 -62.7049L170.826 -62.7049ZM209.256 -97.7249H224.057L205.905 -115.873V-101.072C205.909 -99.2281 207.405 -97.7321 209.249 -97.7321L209.256 -97.7249ZM201.916 -118.702L160.193 -118.698C158.35 -118.698 156.854 -117.206 156.846 -115.362V-38.6161C156.85 -36.7723 158.346 -35.2763 160.193 -35.2723H223.552H223.548C225.396 -35.2801 226.888 -36.7723 226.896 -38.6161V-74.8071L219.338 -61.7091C219.314 -61.674 219.298 -61.6349 219.275 -61.5997C219.138 -61.3576 218.951 -61.1505 218.724 -60.9904L208.998 -52.8927C208.154 -52.1974 206.904 -52.3106 206.197 -53.1466C205.826 -53.5958 205.67 -54.1818 205.767 -54.756L207.931 -67.358C207.978 -67.6197 208.08 -67.8736 208.22 -68.1002L223.021 -93.7212H209.267C205.217 -93.7251 201.931 -97.0103 201.927 -101.061L201.916 -118.702ZM227.131 -83.1749C227.155 -83.214 227.178 -83.2492 227.198 -83.2882L237.956 -101.925L233.757 -104.351L229.155 -96.3979C229.143 -96.3745 229.131 -96.3471 229.12 -96.3237V-96.3003C229.096 -96.2651 229.077 -96.2339 229.053 -96.1987L228.311 -94.9057V-94.9018C228.268 -94.8198 228.221 -94.7416 228.167 -94.6635L212.659 -67.8085L216.858 -65.3827L227.131 -83.1749ZM40.1913 -77.4366C40.8671 -78.3038 42.1211 -78.4561 42.9883 -77.7804C43.8555 -77.1007 44.0078 -75.8507 43.3281 -74.9835L39.2811 -69.8194V-69.8155C38.8983 -69.3311 38.3125 -69.0459 37.6953 -69.0499C37.0742 -69.0577 36.4922 -69.3467 36.1172 -69.8389L32.0898 -74.9834C31.4141 -75.8506 31.5664 -77.1006 32.4297 -77.7803C33.3008 -78.4561 34.5508 -78.3038 35.2305 -77.4366L35.7188 -76.8116V-89.1236C35.7227 -90.2252 36.6172 -91.1119 37.7188 -91.1119V-91.1236H55.7888C56.3201 -91.1236 56.8279 -90.9126 57.2029 -90.5376C57.5779 -90.1626 57.7888 -89.6548 57.7888 -89.1235C57.7888 -88.5923 57.5779 -88.0844 57.2029 -87.7094C56.8279 -87.3344 56.3201 -87.1235 55.7888 -87.1235H39.7028V-76.8145L40.1913 -77.4366ZM59.4923 -76.5421L59.4884 -76.5382C59.1642 -76.1241 58.6876 -75.8507 58.1603 -75.7882C57.6368 -75.7257 57.1056 -75.8741 56.6915 -76.1984C55.8243 -76.878 55.6681 -78.132 56.3439 -78.9992L60.297 -84.0344C61.1681 -85.2532 62.7736 -85.2532 63.6486 -84.0344L67.59 -78.9953C67.9181 -78.5812 68.0665 -78.0499 68.0001 -77.5226C67.9337 -76.9991 67.6642 -76.5187 67.2423 -76.1945C66.8282 -75.8663 66.297 -75.7179 65.7736 -75.7843C65.2462 -75.8468 64.7696 -76.1163 64.4454 -76.5343L63.965 -77.1515V-64.8505H63.9611C63.9611 -64.3231 63.7501 -63.8114 63.3751 -63.4364C63.0001 -63.0614 62.4923 -62.8504 61.9611 -62.8504H43.8831C42.7776 -62.8504 41.8831 -63.7489 41.8831 -64.8504C41.8831 -65.9559 42.7776 -66.8504 43.8831 -66.8504H59.969V-77.1514L59.4923 -76.5421ZM41.0314 -42.3821C39.9259 -42.3821 39.0314 -43.2766 39.0314 -44.3821C39.0314 -45.4876 39.9259 -46.3821 41.0314 -46.3821H58.6564C59.1876 -46.3821 59.6954 -46.1712 60.0704 -45.7962C60.4454 -45.4212 60.6564 -44.9134 60.6564 -44.3821C60.6564 -43.8508 60.4454 -43.343 60.0704 -42.968C59.6954 -42.593 59.1877 -42.382 58.6564 -42.382L41.0314 -42.3821ZM33.6603 -49.9837C32.5548 -49.9837 31.6603 -50.8782 31.6603 -51.9837C31.6603 -53.0853 32.5548 -53.9837 33.6603 -53.9837H66.0272C66.5546 -53.9837 67.0663 -53.7728 67.4413 -53.3978C67.8163 -53.0228 68.0273 -52.511 68.0273 -51.9837C68.0273 -51.4524 67.8163 -50.9446 67.4413 -50.5696C67.0663 -50.1946 66.5546 -49.9836 66.0272 -49.9836L33.6603 -49.9837ZM67.7383 -98.2767H83.1252L64.2422 -117.16V-101.773H64.2383C64.2461 -99.8469 65.8086 -98.2845 67.7383 -98.2767ZM60.2422 -119.992H17.2301C15.3004 -119.988 13.734 -118.421 13.7301 -116.492V-37.4917C13.734 -35.5581 15.2965 -33.9917 17.2301 -33.9878H82.4572C84.3869 -33.9956 85.9493 -35.5581 85.9532 -37.4917H85.965V-94.2727H67.7379C63.6012 -94.2805 60.2496 -97.636 60.2418 -101.773L60.2422 -119.992ZM-126.518 -76.0817C-127.619 -76.0817 -128.518 -76.9762 -128.518 -78.0817C-128.518 -79.1872 -127.619 -80.0817 -126.518 -80.0817H-97.2129C-96.6816 -80.0817 -96.1738 -79.8708 -95.7988 -79.4958C-95.4238 -79.1208 -95.2128 -78.613 -95.2128 -78.0817C-95.2128 -77.5504 -95.4238 -77.0426 -95.7988 -76.6676C-96.1738 -76.2926 -96.6816 -76.0816 -97.2129 -76.0816L-126.518 -76.0817ZM-126.518 -84.195C-127.619 -84.195 -128.518 -85.0895 -128.518 -86.195C-128.518 -87.3005 -127.619 -88.195 -126.518 -88.195H-91.1738C-90.6426 -88.195 -90.1348 -87.9841 -89.7598 -87.6091C-89.3848 -87.2341 -89.1738 -86.7263 -89.1738 -86.195C-89.1738 -85.6637 -89.3848 -85.1559 -89.7598 -84.7809C-90.1348 -84.4059 -90.6425 -84.1949 -91.1738 -84.1949L-126.518 -84.195ZM-120.135 -92.3083C-121.241 -92.3083 -122.135 -93.2028 -122.135 -94.3083C-122.135 -95.4099 -121.241 -96.3083 -120.135 -96.3083H-81.553C-81.0257 -96.3083 -80.514 -96.0974 -80.139 -95.7224C-79.764 -95.3474 -79.553 -94.8356 -79.553 -94.3083C-79.553 -93.777 -79.764 -93.2692 -80.139 -92.8942C-80.514 -92.5192 -81.0257 -92.3082 -81.553 -92.3082L-120.135 -92.3083ZM-112.123 -101.707C-113.229 -101.707 -114.123 -102.601 -114.123 -103.707C-114.123 -104.812 -113.229 -105.707 -112.123 -105.707H-95.9474C-95.4161 -105.707 -94.9083 -105.496 -94.5333 -105.121C-94.1583 -104.746 -93.9473 -104.238 -93.9473 -103.707C-93.9473 -103.175 -94.1583 -102.668 -94.5333 -102.293C-94.9083 -101.918 -95.4161 -101.707 -95.9474 -101.707L-112.123 -101.707ZM-68.9244 -73.2147C-71.8111 -76.1053 -76.7759 -74.0506 -76.7759 -69.9608C-76.7759 -65.871 -71.8112 -63.8163 -68.9244 -66.7069V-66.703C-68.0611 -67.5663 -67.5728 -68.7382 -67.5728 -69.9608C-67.5728 -71.1796 -68.0611 -72.3514 -68.9244 -73.2147ZM-72.1705 -78.5585C-67.4205 -78.5585 -63.5688 -74.7069 -63.5688 -69.9608C-63.5688 -65.2108 -67.4205 -61.3592 -72.1705 -61.3592C-76.9205 -61.3592 -80.772 -65.2108 -80.772 -69.9608C-80.772 -74.7069 -76.9205 -78.5585 -72.1705 -78.5585ZM-75.4127 -83.1249C-75.5923 -82.9022 -75.733 -82.6483 -75.8267 -82.3788C-76.0377 -81.8905 -76.4361 -81.5116 -76.9283 -81.3202C-77.4244 -81.1288 -77.9713 -81.1405 -78.4556 -81.3554C-79.3814 -81.7538 -80.3306 -81.4921 -81.2837 -81.3437H-81.2876C-82.4634 -81.1718 -83.3853 -80.246 -83.5571 -79.0664C-83.7095 -78.1171 -83.979 -77.1679 -83.5688 -76.2421C-83.354 -75.7461 -83.3462 -75.1797 -83.5571 -74.6758C-83.7642 -74.1718 -84.1665 -73.7773 -84.6743 -73.578C-85.5962 -73.2187 -86.1001 -72.3358 -86.6548 -71.578C-87.3697 -70.6249 -87.3697 -69.3125 -86.6548 -68.3593C-86.1314 -67.6444 -85.5884 -66.7109 -84.7564 -66.3866C-84.7017 -66.367 -84.6431 -66.3475 -84.5845 -66.3241C-83.5767 -65.8748 -83.1198 -64.6952 -83.5651 -63.6874C-83.9635 -62.7616 -83.7057 -61.8124 -83.5533 -60.8671V-60.8631C-83.3776 -59.6873 -82.4556 -58.7615 -81.2799 -58.5858C-80.3268 -58.4374 -79.3737 -58.1718 -78.4518 -58.5741C-77.9518 -58.7929 -77.3854 -58.7968 -76.8854 -58.5898C-76.3815 -58.3788 -75.9831 -57.9765 -75.7877 -57.4687C-75.4283 -56.5429 -74.5533 -56.0429 -73.7877 -55.4843C-72.8346 -54.7694 -71.526 -54.7694 -70.5729 -55.4843C-69.8542 -56.0038 -68.9167 -56.5546 -68.5963 -57.3827C-68.5768 -57.4412 -68.5573 -57.4959 -68.5338 -57.5545C-68.0846 -58.5584 -66.9088 -59.0154 -65.901 -58.574C-64.9713 -58.1756 -64.026 -58.4373 -63.0729 -58.5857C-61.8971 -58.7615 -60.9752 -59.6874 -60.7995 -60.8631C-60.6472 -61.8084 -60.3776 -62.7614 -60.7878 -63.6833V-63.6873C-61.0065 -64.1873 -61.0104 -64.7537 -60.8034 -65.2537C-60.5925 -65.7576 -60.1901 -66.156 -59.6823 -66.3514C-58.7565 -66.7068 -58.2565 -67.5897 -57.7057 -68.3514H-57.7018C-56.987 -69.3084 -56.987 -70.617 -57.7018 -71.5741C-58.2175 -72.2889 -58.7682 -73.2303 -59.6002 -73.5468C-59.6588 -73.5624 -59.7135 -73.5858 -59.7643 -73.6132C-60.7721 -74.0585 -61.2331 -75.2343 -60.7916 -76.246C-60.3931 -77.1717 -60.6509 -78.121 -60.8033 -79.0702C-60.9752 -80.246 -61.901 -81.1718 -63.0767 -81.3475C-63.1431 -81.3592 -63.2056 -81.3709 -63.2759 -81.3748C-64.1587 -81.5271 -65.0454 -81.7381 -65.9048 -81.3592C-66.4048 -81.1404 -66.9712 -81.1365 -67.4712 -81.3475C-67.9751 -81.5545 -68.3696 -81.9568 -68.565 -82.4647C-68.9283 -83.3904 -69.8072 -83.8866 -70.5767 -84.4491C-71.5299 -85.1639 -72.8384 -85.1639 -73.7915 -84.4491C-74.3149 -84.0701 -75.0532 -83.6014 -75.4204 -83.1288L-75.4127 -83.1249ZM-77.811 -53.5229V-39.5739L-73.5377 -43.5036V-43.5075C-72.772 -44.2067 -71.6001 -44.2067 -70.8345 -43.5075C-69.4165 -42.1911 -67.983 -40.8864 -66.5573 -39.5778V-53.5228C-67.0924 -53.0697 -67.651 -52.6439 -68.233 -52.2494C-70.5846 -50.5111 -73.7917 -50.5111 -76.1393 -52.2494C-76.7213 -52.6439 -77.2797 -53.0698 -77.811 -53.5229ZM-72.811 -88.9569V-104.684C-74.9048 -105.34 -76.5416 -106.977 -77.2017 -109.067H-130.878C-131.534 -106.981 -133.171 -105.344 -135.26 -104.684V-76.9259C-133.167 -76.2736 -131.526 -74.6368 -130.87 -72.5431H-90.6708C-90.4638 -73.0236 -90.206 -73.4806 -89.8974 -73.9025C-89.1826 -74.883 -88.7138 -75.6369 -87.7255 -76.3908C-87.8896 -77.6056 -87.6865 -78.4885 -87.499 -79.6799H-87.5029C-87.0771 -82.5744 -84.8076 -84.8518 -81.9091 -85.2776C-80.7099 -85.4768 -79.8349 -85.676 -78.62 -85.512C-77.8583 -86.4964 -77.1122 -86.969 -76.1317 -87.6761H-76.1356C-75.1629 -88.3909 -74.0145 -88.8323 -72.8114 -88.9495L-72.811 -88.9569ZM-64.9088 -85.5741V-114.898C-64.9088 -116.097 -66.0377 -116.961 -67.2565 -116.961L-140.811 -116.965C-142.03 -116.965 -143.159 -116.101 -143.159 -114.902V-66.726C-143.159 -65.5268 -142.03 -64.6674 -140.811 -64.6674V-64.6557H-88.8854C-89.2253 -65.0698 -89.5261 -65.5112 -89.8854 -66.0151H-89.8893C-90.4479 -66.7768 -90.8386 -67.6479 -91.0417 -68.5737H-132.565H-132.561C-133.666 -68.5737 -134.561 -69.4682 -134.561 -70.5737C-134.561 -71.2846 -134.842 -71.9682 -135.346 -72.4682C-135.85 -72.9721 -136.533 -73.2533 -137.244 -73.2533C-138.35 -73.2533 -139.244 -74.1479 -139.244 -75.2533V-106.378C-139.244 -107.484 -138.35 -108.378 -137.244 -108.378C-136.533 -108.378 -135.85 -108.664 -135.346 -109.167C-134.846 -109.671 -134.561 -110.351 -134.561 -111.066C-134.561 -112.167 -133.666 -113.066 -132.561 -113.066H-75.4948C-74.9635 -113.066 -74.4557 -112.855 -74.0807 -112.48C-73.7057 -112.105 -73.4948 -111.593 -73.4948 -111.066C-73.4948 -110.351 -73.2134 -109.667 -72.7095 -109.163C-72.2095 -108.66 -71.526 -108.374 -70.8112 -108.374C-70.2838 -108.374 -69.7759 -108.163 -69.4009 -107.788C-69.0259 -107.413 -68.8189 -106.906 -68.8228 -106.374V-88.0624C-68.6236 -87.9413 -68.4244 -87.8124 -68.2213 -87.6639C-67.2408 -86.9569 -66.4908 -86.4842 -65.733 -85.4998C-65.4595 -85.535 -65.1822 -85.5545 -64.9048 -85.5545L-64.9088 -85.5741ZM-258.979 -42.3901C-260.084 -42.3901 -260.979 -43.2846 -260.979 -44.3901C-260.979 -45.4917 -260.084 -46.3901 -258.979 -46.3901H-241.354C-240.823 -46.3901 -240.315 -46.1792 -239.94 -45.8042C-239.565 -45.4292 -239.354 -44.9174 -239.354 -44.3901C-239.354 -43.8588 -239.565 -43.351 -239.94 -42.976C-240.315 -42.601 -240.822 -42.39 -241.354 -42.39L-258.979 -42.3901ZM-266.35 -49.9917V-49.9878C-267.451 -49.9878 -268.35 -50.8823 -268.35 -51.9878C-268.35 -53.0933 -267.451 -53.9878 -266.35 -53.9878H-233.983C-233.452 -53.9878 -232.944 -53.7769 -232.569 -53.4019C-232.194 -53.0269 -231.983 -52.519 -231.983 -51.9878C-231.983 -51.4565 -232.194 -50.9487 -232.569 -50.5737C-232.944 -50.1987 -233.452 -49.9877 -233.983 -49.9877L-266.35 -49.9917ZM-246.905 -83.0897L-246.901 -83.0858C-246.12 -83.8671 -244.854 -83.8671 -244.073 -83.0858C-243.296 -82.3046 -243.296 -81.0389 -244.073 -80.2577L-247.335 -76.9921L-244.073 -73.7304C-243.296 -72.9492 -243.296 -71.6835 -244.073 -70.9023C-244.854 -70.121 -246.12 -70.121 -246.901 -70.9023L-250.163 -74.164L-253.428 -70.9023C-254.209 -70.121 -255.475 -70.121 -256.256 -70.9023C-257.038 -71.6835 -257.038 -72.9492 -256.256 -73.7304L-252.991 -76.9921L-256.256 -80.2577C-257.038 -81.0389 -257.038 -82.3046 -256.256 -83.0858C-255.475 -83.867 -254.209 -83.8671 -253.428 -83.0858L-250.163 -79.8202L-246.905 -83.0897ZM-240.135 -87.0272V-87.0194C-245.674 -92.5585 -254.655 -92.5585 -260.194 -87.0194C-265.73 -81.4803 -265.73 -72.5034 -260.194 -66.9644C-257.534 -64.3042 -253.925 -62.8082 -250.163 -62.8082C-246.402 -62.8082 -242.796 -64.3043 -240.136 -66.9644C-237.476 -69.6206 -235.98 -73.23 -235.98 -76.9914C-235.98 -80.7531 -237.476 -84.3586 -240.136 -87.0184L-240.135 -87.0272ZM-250.162 -95.1795C-245.338 -95.1795 -240.713 -93.2615 -237.303 -89.8514C-233.897 -86.4412 -231.979 -81.8123 -231.979 -76.9924C-231.983 -72.1682 -233.897 -67.5432 -237.307 -64.1374C-240.717 -60.7272 -245.342 -58.8093 -250.162 -58.8093C-254.986 -58.8093 -259.611 -60.7234 -263.021 -64.1335C-266.431 -67.5437 -268.349 -72.1687 -268.349 -76.9925C-268.349 -81.8167 -266.435 -86.4417 -263.025 -89.8515C-259.611 -93.2617 -254.986 -95.1795 -250.162 -95.1795ZM-232.264 -98.285H-216.877L-235.76 -117.168V-101.781L-235.764 -101.777C-235.756 -99.8474 -234.194 -98.2849 -232.264 -98.2771L-232.264 -98.285ZM-239.764 -120H-282.78V-119.992C-284.71 -119.988 -286.269 -118.426 -286.276 -116.496V-37.4961C-286.273 -35.5625 -284.71 -34 -282.78 -33.9922H-217.553C-215.62 -33.9961 -214.053 -35.5625 -214.049 -37.4961V-94.2731H-232.268C-236.409 -94.2809 -239.761 -97.6364 -239.768 -101.773L-239.764 -120ZM-390.284 -55.7812C-389.909 -55.4062 -389.698 -54.8984 -389.698 -54.3671C-389.698 -53.8358 -389.909 -53.328 -390.284 -52.953C-390.659 -52.578 -391.167 -52.3671 -391.698 -52.3671C-392.23 -52.3671 -392.738 -52.578 -393.113 -52.953C-396.288 -56.1327 -396.288 -61.2811 -393.113 -64.465C-392.327 -65.2384 -391.066 -65.2384 -390.284 -64.465C-389.909 -64.0861 -389.698 -63.5783 -389.698 -63.047C-389.698 -62.5157 -389.909 -62.0079 -390.284 -61.6329C-391.058 -60.8555 -391.495 -59.8048 -391.495 -58.7071C-391.495 -57.6094 -391.058 -56.5586 -390.284 -55.7812ZM-387.359 -68.641V-68.6371C-392.843 -68.6332 -397.284 -64.1879 -397.284 -58.7074C-397.284 -53.2269 -392.843 -48.7816 -387.359 -48.7816C-384.726 -48.7777 -382.202 -49.8207 -380.339 -51.6839C-378.468 -53.5394 -377.417 -56.0706 -377.421 -58.7034C-377.421 -64.1878 -381.866 -68.6331 -387.351 -68.6331L-387.359 -68.641ZM-373.644 -45.039L-373.687 -44.996C-374.296 -44.3632 -374.288 -43.3554 -373.667 -42.7343L-365.39 -34.4531V-34.4492C-364.929 -33.9922 -364.237 -33.8555 -363.636 -34.1055C-363.034 -34.3555 -362.644 -34.9375 -362.64 -35.5899C-362.64 -36.0157 -362.808 -36.4219 -363.112 -36.7227L-371.394 -45.0079C-371.694 -45.3087 -372.105 -45.4805 -372.534 -45.4766C-372.948 -45.4844 -373.347 -45.3243 -373.644 -45.0352V-45.039ZM-424.042 -79.281L-424.045 -79.2771C-425.151 -79.2771 -426.045 -80.1716 -426.045 -81.2771C-426.045 -82.3826 -425.151 -83.2771 -424.045 -83.2771H-382.818C-382.291 -83.2771 -381.779 -83.0662 -381.404 -82.6912C-381.029 -82.3162 -380.818 -81.8083 -380.818 -81.2771C-380.818 -80.7458 -381.029 -80.238 -381.404 -79.863C-381.779 -79.488 -382.291 -79.277 -382.818 -79.277L-424.042 -79.281ZM-424.042 -93.429L-424.045 -93.4251C-425.151 -93.4251 -426.045 -94.3235 -426.045 -95.4251C-426.045 -96.5306 -425.151 -97.4251 -424.045 -97.4251H-402.393C-401.862 -97.4251 -401.354 -97.2142 -400.979 -96.8392C-400.604 -96.4642 -400.393 -95.9563 -400.393 -95.4251C-400.393 -94.8977 -400.604 -94.386 -400.979 -94.011C-401.354 -93.636 -401.862 -93.425 -402.393 -93.425L-424.042 -93.429ZM-424.042 -65.128H-424.045C-425.151 -65.128 -426.045 -66.0225 -426.045 -67.128C-426.045 -68.2296 -425.151 -69.128 -424.045 -69.128H-407.936C-407.405 -69.128 -406.897 -68.9171 -406.522 -68.5421C-406.147 -68.1671 -405.936 -67.6553 -405.936 -67.128C-405.936 -66.5967 -406.147 -66.085 -406.522 -65.71C-406.897 -65.335 -407.405 -65.1279 -407.936 -65.1279L-424.042 -65.128ZM-424.042 -50.98L-424.045 -50.9761C-425.151 -50.9761 -426.045 -51.8706 -426.045 -52.9761C-426.045 -54.0816 -425.151 -54.9761 -424.045 -54.9761H-407.936C-407.405 -54.9761 -406.897 -54.7652 -406.522 -54.3902C-406.147 -54.0152 -405.936 -53.5073 -405.936 -52.9761C-405.936 -52.4448 -406.147 -51.937 -406.522 -51.562C-406.897 -51.187 -407.405 -50.976 -407.936 -50.976L-424.042 -50.98ZM-386.401 -99.523H-372.003L-389.62 -117.16V-102.762C-389.62 -100.981 -388.182 -99.5347 -386.401 -99.523ZM-369.159 -48.363V-95.523H-386.401C-390.393 -95.5308 -393.627 -98.7652 -393.635 -102.757V-119.991H-434.459C-436.24 -119.988 -437.686 -118.542 -437.697 -116.761V-41.5929C-437.689 -39.8077 -436.244 -38.3624 -434.459 -38.3585H-374.943L-376.498 -39.9093L-376.494 -39.9132C-378.13 -41.5616 -378.591 -44.046 -377.658 -46.171L-379.025 -47.5421V-47.546C-384.568 -43.4054 -392.31 -43.964 -397.205 -48.8585C-402.643 -54.2999 -402.643 -63.1165 -397.205 -68.5535C-391.764 -73.991 -382.947 -73.991 -377.51 -68.5535C-372.616 -63.6629 -372.057 -55.9165 -376.194 -50.3695L-374.823 -48.9945C-372.959 -49.8265 -370.791 -49.5883 -369.158 -48.3656L-369.159 -48.363ZM-543.859 -86.183C-544.948 -86.3432 -545.706 -87.351 -545.554 -88.4408C-545.398 -89.5306 -544.386 -90.2885 -543.296 -90.1361L-534.62 -88.9017H-534.624C-534.003 -88.8119 -533.46 -88.433 -533.155 -87.8822C-532.855 -87.3353 -532.827 -86.6713 -533.085 -86.101L-536.316 -78.058C-536.73 -77.0307 -537.894 -76.5346 -538.917 -76.9447C-539.941 -77.3588 -540.433 -78.5228 -540.023 -79.5463L-538.913 -82.3119L-566.296 -66.5109C-567.249 -65.964 -568.464 -66.2882 -569.019 -67.2375C-569.285 -67.6945 -569.359 -68.2375 -569.222 -68.7492C-569.085 -69.2609 -568.749 -69.6984 -568.292 -69.964L-540.909 -85.776L-543.859 -86.183ZM-533.984 -69.492H-537.964V-48.293H-533.984V-69.492ZM-539.964 -73.492H-531.987V-73.4959C-531.456 -73.4959 -530.948 -73.285 -530.573 -72.91C-530.198 -72.535 -529.987 -72.0272 -529.987 -71.4959V-46.2969C-529.987 -45.7656 -530.198 -45.2539 -530.573 -44.8789C-530.948 -44.5039 -531.456 -44.2968 -531.987 -44.2968H-539.964C-541.066 -44.2968 -541.964 -45.1914 -541.964 -46.2968V-71.4958C-541.964 -72.5974 -541.066 -73.4958 -539.964 -73.4958V-73.492ZM-548.183 -63.5662H-552.163V-48.2932H-548.183V-63.5662ZM-554.163 -67.5662H-546.179L-546.183 -67.5701C-545.652 -67.5701 -545.144 -67.3592 -544.765 -66.9842C-544.39 -66.6092 -544.183 -66.0974 -544.183 -65.5701V-46.3001C-544.183 -45.7688 -544.39 -45.261 -544.765 -44.886C-545.144 -44.5071 -545.652 -44.3 -546.183 -44.3H-554.167H-554.163C-555.269 -44.3 -556.163 -45.1946 -556.163 -46.3V-65.57C-556.163 -66.6716 -555.269 -67.57 -554.163 -67.57V-67.5662ZM-562.378 -58.5662H-566.359V-48.2892H-562.378V-58.5662ZM-568.359 -62.5662H-560.382V-62.5701C-559.851 -62.5701 -559.343 -62.3592 -558.968 -61.9842C-558.593 -61.6092 -558.382 -61.0974 -558.382 -60.5701V-46.2851C-558.382 -45.7577 -558.593 -45.246 -558.968 -44.871C-559.343 -44.496 -559.851 -44.285 -560.382 -44.285H-568.363C-569.464 -44.285 -570.363 -45.1835 -570.363 -46.285V-60.57C-570.363 -61.6716 -569.464 -62.57 -568.363 -62.57L-568.359 -62.5662ZM-532.273 -98.2692H-516.886L-535.769 -117.152V-101.765L-535.773 -101.769C-535.765 -99.8433 -534.202 -98.2808 -532.276 -98.273L-532.273 -98.2692ZM-539.773 -119.984H-582.773L-582.777 -119.988C-584.706 -119.984 -586.273 -118.422 -586.28 -116.488V-37.4881C-586.273 -35.5545 -584.706 -33.992 -582.777 -33.9842H-517.55C-515.616 -33.992 -514.053 -35.5584 -514.05 -37.4881V-94.2731H-532.273C-536.409 -94.2809 -539.765 -97.6364 -539.773 -101.773L-539.773 -119.984ZM-677.513 -65.6562H-677.517C-676.649 -66.3359 -675.399 -66.1875 -674.716 -65.3281C-674.036 -64.4648 -674.181 -63.2148 -675.044 -62.5273L-685.423 -54.3398V-54.3437C-686.228 -53.7109 -687.38 -53.789 -688.095 -54.5234L-692.45 -59.0195H-692.446C-693.208 -59.8164 -693.185 -61.0781 -692.392 -61.8437C-691.595 -62.6054 -690.333 -62.5781 -689.568 -61.7851L-686.474 -58.5859L-677.513 -65.6562ZM-698.622 -69.8242C-698.622 -70.9258 -697.727 -71.8242 -696.622 -71.8242H-680.911C-680.383 -71.8242 -679.872 -71.6133 -679.497 -71.2383C-679.122 -70.8633 -678.911 -70.3515 -678.911 -69.8242C-678.911 -69.2929 -679.122 -68.7851 -679.497 -68.4101C-679.872 -68.0351 -680.383 -67.8241 -680.911 -67.8241H-694.626V-51.4691H-678.271V-55.1722H-678.275C-678.275 -56.2777 -677.376 -57.1722 -676.275 -57.1722C-675.743 -57.1722 -675.235 -56.9613 -674.86 -56.5863C-674.485 -56.2113 -674.275 -55.7035 -674.275 -55.1722V-49.473C-674.275 -48.9417 -674.485 -48.4339 -674.86 -48.0589C-675.235 -47.6839 -675.743 -47.4729 -676.275 -47.4729H-696.623C-697.728 -47.4729 -698.623 -48.3675 -698.623 -49.4729L-698.622 -69.8242ZM-724.048 -77.2109C-725.153 -77.2109 -726.048 -78.1054 -726.048 -79.2109C-726.048 -80.3164 -725.153 -81.2109 -724.048 -81.2109H-676.267H-676.271C-675.739 -81.2109 -675.231 -81 -674.856 -80.625C-674.481 -80.25 -674.271 -79.7422 -674.271 -79.2109C-674.271 -78.6796 -674.481 -78.1718 -674.856 -77.7968C-675.231 -77.4218 -675.739 -77.2108 -676.271 -77.2108L-724.048 -77.2109ZM-724.048 -92.0819C-725.153 -92.0819 -726.048 -92.9764 -726.048 -94.0819C-726.048 -95.1874 -725.153 -96.0819 -724.048 -96.0819H-701.298C-700.766 -96.0819 -700.259 -95.871 -699.884 -95.496C-699.509 -95.121 -699.298 -94.6132 -699.298 -94.0819C-699.298 -93.5506 -699.509 -93.0428 -699.884 -92.6678C-700.259 -92.2928 -700.766 -92.0818 -701.298 -92.0818L-724.048 -92.0819ZM-724.048 -62.3399C-725.153 -62.3399 -726.048 -63.2344 -726.048 -64.3399C-726.048 -65.4454 -725.153 -66.3399 -724.048 -66.3399H-707.118H-707.122C-706.59 -66.3399 -706.082 -66.129 -705.707 -65.754C-705.332 -65.379 -705.122 -64.8712 -705.122 -64.3399C-705.122 -63.8086 -705.332 -63.3008 -705.707 -62.9258C-706.082 -62.5508 -706.59 -62.3398 -707.122 -62.3398L-724.048 -62.3399ZM-724.048 -47.4689C-725.153 -47.4689 -726.048 -48.3634 -726.048 -49.4689C-726.048 -50.5744 -725.153 -51.4689 -724.048 -51.4689H-707.118H-707.122C-706.59 -51.4689 -706.082 -51.258 -705.707 -50.883C-705.332 -50.508 -705.122 -50.0002 -705.122 -49.4689C-705.122 -48.9376 -705.332 -48.4298 -705.707 -48.0548C-706.082 -47.6798 -706.59 -47.4688 -707.122 -47.4688L-724.048 -47.4689ZM-682.259 -98.2699H-666.872L-685.755 -117.153V-101.766H-685.759C-685.755 -99.8362 -684.192 -98.2737 -682.262 -98.2698L-682.259 -98.2699ZM-689.759 -119.985H-732.775C-734.704 -119.977 -736.267 -118.415 -736.275 -116.485V-37.4849C-736.267 -35.5552 -734.704 -33.9888 -732.775 -33.981H-667.548C-665.614 -33.9888 -664.052 -35.5513 -664.044 -37.4849V-94.2739H-682.267C-686.403 -94.2817 -689.759 -97.6372 -689.767 -101.774L-689.759 -119.985ZM-847.319 -79.0629C-846.116 -80.2699 -844.475 -80.9496 -842.768 -80.9496C-841.061 -80.9496 -839.42 -80.2699 -838.213 -79.0629C-835.705 -76.5473 -835.705 -72.4731 -838.213 -69.9574C-840.729 -67.4457 -844.803 -67.4457 -847.319 -69.9574C-849.83 -72.473 -849.83 -76.5472 -847.319 -79.0629ZM-842.768 -76.9457C-843.752 -76.9457 -844.639 -76.3519 -845.018 -75.4418C-845.393 -74.5316 -845.186 -73.4848 -844.491 -72.7856C-843.791 -72.0903 -842.744 -71.8833 -841.834 -72.2622C-840.928 -72.6372 -840.334 -73.5239 -840.33 -74.5083C-840.33 -75.1567 -840.588 -75.7778 -841.045 -76.2349C-841.502 -76.692 -842.123 -76.9457 -842.768 -76.9457ZM-832.26 -98.2696H-816.873L-835.756 -117.153V-101.766H-835.76C-835.752 -99.8359 -834.189 -98.2773 -832.264 -98.2695L-832.26 -98.2696ZM-839.752 -119.985H-882.779C-884.709 -119.981 -886.275 -118.414 -886.279 -116.485V-37.4846C-886.275 -35.5549 -884.713 -33.9885 -882.779 -33.9807H-817.552C-815.622 -33.9885 -814.056 -35.5549 -814.056 -37.4846V-94.2736H-832.283C-836.42 -94.2814 -839.771 -97.6369 -839.775 -101.774L-839.752 -119.985ZM63.1479 56.6554H73.3629L61.058 44.3464V54.5654C61.0619 55.7177 61.9956 56.6515 63.1479 56.6554ZM34.429 63.0343C33.3235 63.0343 32.429 62.1398 32.429 61.0343C32.429 59.9288 33.3235 59.0343 34.429 59.0343H50.6089C51.7144 59.0343 52.6089 59.9288 52.6089 61.0343C52.6089 62.1398 51.7144 63.0343 50.6089 63.0343H34.429ZM87.339 70.0343H12.319C11.7682 70.0343 11.319 70.4835 11.319 71.0343V72.1632C11.319 72.4288 11.4244 72.6827 11.6119 72.8702C11.7994 73.0577 12.0533 73.1632 12.319 73.1632H87.3419C87.6036 73.1632 87.8615 73.0577 88.049 72.8702C88.2365 72.6827 88.3419 72.4288 88.3419 72.1632V71.0343C88.3419 70.7687 88.2365 70.5148 88.049 70.3273C87.8615 70.1398 87.6036 70.0343 87.3419 70.0343H87.339ZM23.464 77.1749V102.413C23.4679 103.565 24.4014 104.503 25.5577 104.503H74.1047C75.257 104.499 76.1907 103.565 76.1946 102.413H76.2063V77.1749H23.464ZM76.2059 66.0459V60.6592H63.147C59.7876 60.6514 57.061 57.9287 57.0531 54.5654V41.5184H25.5571C24.4009 41.5223 23.4674 42.4559 23.4634 43.6122V66.0422L76.2059 66.0459ZM210.226 30.0109H167.21C165.28 30.0187 163.718 31.5812 163.714 33.5148V112.515C163.722 114.445 165.28 116.007 167.21 116.011H232.437C234.37 116.007 235.933 114.445 235.941 112.515V55.7258H217.722C213.581 55.718 210.23 52.3664 210.222 48.2258L210.226 30.0109ZM-382.274 51.7259H-366.887L-385.77 32.8429V48.2299L-385.774 48.226C-385.766 50.1557 -384.204 51.7181 -382.274 51.7259ZM-364.047 55.7259H-382.274C-386.411 55.7181 -389.762 52.3626 -389.77 48.2259V30.0109H-432.782C-434.716 30.0148 -436.278 31.5812 -436.282 33.5148V112.515C-436.278 114.445 -434.712 116.007 -432.782 116.011H-367.555C-365.625 116.007 -364.067 114.445 -364.059 112.515L-364.047 55.7259ZM-874.127 -86.7441H-826.205C-825.674 -86.7441 -825.166 -86.5332 -824.791 -86.1582C-824.416 -85.7832 -824.205 -85.2754 -824.205 -84.7441V-48.5211C-824.205 -47.9937 -824.416 -47.482 -824.791 -47.107C-825.166 -46.732 -825.674 -46.521 -826.205 -46.521H-874.127C-875.233 -46.521 -876.127 -47.4195 -876.127 -48.521V-84.744C-876.127 -85.8456 -875.233 -86.7441 -874.127 -86.7441ZM-850.092 -50.5211H-828.209V-54.7945L-835.631 -62.2164L-835.627 -62.2203C-836.393 -62.9781 -837.627 -62.9781 -838.389 -62.2203L-843.979 -56.6305L-850.092 -50.5211ZM-872.131 -68.0411L-872.127 -50.5211H-855.748L-848.225 -58.0445L-862.084 -71.9035V-71.9074C-863.795 -73.6027 -866.553 -73.6027 -868.26 -71.9074L-872.131 -68.0411ZM-828.209 -82.7521H-872.131V-73.6974L-871.092 -74.7365C-867.819 -77.9982 -862.529 -77.9982 -859.26 -74.7365L-845.397 -60.8735L-841.217 -65.0454V-65.0493C-838.893 -67.3696 -835.127 -67.3696 -832.799 -65.0493L-828.198 -60.4477L-828.209 -82.7521ZM-978.559 -98.2791H-963.172L-982.055 -117.162V-101.775V-101.779C-982.051 -99.8493 -980.489 -98.2869 -978.559 -98.2791ZM-1006.72 -90.7752C-1010.38 -94.4314 -1015.34 -96.4861 -1020.51 -96.4861C-1025.68 -96.4861 -1030.63 -94.4314 -1034.29 -90.7752C-1037.95 -87.119 -1040 -82.1619 -1040 -76.9942C-1040 -71.8223 -1037.95 -66.8652 -1034.29 -63.2132C-1030.63 -59.557 -1025.68 -57.5062 -1020.51 -57.5062C-1015.34 -57.5062 -1010.38 -59.557 -1006.72 -63.2132C-1003.07 -66.8694 -1001.02 -71.8265 -1001.02 -76.9942C-1001.02 -82.1622 -1003.07 -87.1192 -1006.72 -90.7752ZM-1032.56 -56.8303V-37.4903V-37.4942C-1032.56 -35.5645 -1031 -33.9981 -1029.07 -33.9903H-963.844C-961.91 -33.9981 -960.348 -35.5645 -960.344 -37.4942H-960.332V-94.2712H-978.559C-982.696 -94.279 -986.051 -97.6345 -986.055 -101.771V-119.986H-1029.07V-119.99C-1031 -119.986 -1032.56 -118.42 -1032.56 -116.49V-97.1461C-1028.92 -99.3336 -1024.75 -100.486 -1020.51 -100.482C-1014.28 -100.478 -1008.31 -98.0015 -1003.9 -93.5953C-999.497 -89.1891 -997.024 -83.2163 -997.024 -76.9863C-997.024 -70.7563 -999.497 -64.7833 -1003.9 -60.3773C-1008.31 -55.975 -1014.28 -53.4984 -1020.51 -53.4984C-1024.76 -53.4906 -1028.93 -54.6429 -1032.57 -56.8265L-1032.56 -56.8303ZM360.237 30.0057H317.237L317.233 30.0018C315.303 30.0096 313.737 31.5721 313.729 33.5057V112.506C313.737 114.439 315.303 116.002 317.233 116.006H382.46C384.39 115.998 385.952 114.435 385.96 112.506V55.7247H367.737C363.6 55.7169 360.245 52.3653 360.237 48.2247L360.237 30.0057ZM193.707 69.2637C193.336 69.6504 192.824 69.8692 192.285 69.8731C191.75 69.877 191.234 69.666 190.855 69.2871C190.476 68.9082 190.266 68.3926 190.269 67.8574C190.273 67.3184 190.496 66.8066 190.879 66.4355L198.539 58.7753C199.32 57.9941 200.586 57.9941 201.367 58.7753L209.031 66.4355H209.035C209.816 67.2168 209.816 68.4824 209.031 69.2636C208.25 70.0449 206.984 70.0449 206.203 69.2636L201.879 64.9355L201.691 77.3065V77.3104C201.742 77.8729 201.551 78.4276 201.168 78.8416C200.781 79.2596 200.242 79.4901 199.676 79.4823C199.113 79.4784 198.574 79.2323 198.203 78.8104C197.828 78.3846 197.648 77.826 197.711 77.2635L197.891 65.0795L193.707 69.2637ZM34.427 84.1777C33.3215 84.1777 32.427 83.2832 32.427 82.1777C32.427 81.0761 33.3215 80.1777 34.427 80.1777H65.2279C66.3334 80.1777 67.2279 81.0761 67.2279 82.1777C67.2279 83.2832 66.3334 84.1777 65.2279 84.1777H34.427Z" fill="#EE764D"/>
</svg>
