<svg width="110" height="121" viewBox="0 0 110 121" fill="none" xmlns="http://www.w3.org/2000/svg">
<path d="M45.4441 94.7522C44.3386 94.7522 43.4441 93.8576 43.4441 92.7522C43.4441 91.6467 44.3386 90.7522 45.4441 90.7522H66.37C67.4755 90.7522 68.37 91.6467 68.37 92.7522C68.37 93.8576 67.4755 94.7522 66.37 94.7522H45.4441ZM42.4792 116.014C43.5847 116.014 44.4792 116.909 44.4792 118.014C44.4792 119.12 43.5847 120.014 42.4792 120.014H15.8462C14.7407 120.014 13.8462 119.12 13.8462 118.014V91.3812C13.8462 90.2757 14.7407 89.3812 15.8462 89.3812C16.9478 89.3812 17.8462 90.2757 17.8462 91.3812V116.014H42.4792ZM103.846 91.3812C103.846 90.2757 104.741 89.3812 105.846 89.3812C106.948 89.3812 107.846 90.2757 107.846 91.3812V118.014C107.846 118.545 107.635 119.053 107.26 119.428C106.885 119.803 106.374 120.014 105.846 120.014H79.2092C78.1038 120.014 77.2092 119.12 77.2092 118.014C77.2092 116.909 78.1038 116.014 79.2092 116.014H103.846V91.3812ZM79.2092 30.0102C78.1038 30.0102 77.2092 29.1156 77.2092 28.0102C77.2092 26.9047 78.1038 26.0102 79.2092 26.0102H105.846C106.374 26.0102 106.885 26.2211 107.26 26.5961C107.635 26.9711 107.846 27.4789 107.846 28.0102V54.6512C107.846 55.7528 106.948 56.6512 105.846 56.6512C104.741 56.6512 103.846 55.7528 103.846 54.6512V30.0102L79.2092 30.0102ZM13.8423 28.0102H13.8462C13.8462 26.9047 14.7407 26.0102 15.8462 26.0102H42.4791C43.5846 26.0102 44.4791 26.9047 44.4791 28.0102C44.4791 29.1157 43.5846 30.0102 42.4791 30.0102H17.8462V54.6512C17.8462 55.7528 16.9517 56.6512 15.8462 56.6512C14.7407 56.6512 13.8462 55.7527 13.8462 54.6512L13.8423 28.0102ZM-1000.76 -78.9898H-1000.75C-1000.23 -78.9898 -999.715 -78.7789 -999.34 -78.4039C-998.965 -78.0289 -998.754 -77.5211 -998.754 -76.9898C-998.754 -76.4585 -998.965 -75.9507 -999.34 -75.5757C-999.715 -75.2007 -1000.23 -74.9898 -1000.75 -74.9898H-1007.54V-68.2085V-68.2125C-1007.54 -67.6812 -1007.75 -67.1734 -1008.12 -66.7945C-1008.5 -66.4195 -1009 -66.2124 -1009.54 -66.2124C-1010.64 -66.2124 -1011.54 -67.107 -1011.54 -68.2124V-74.9936H-1018.32V-74.9897C-1019.42 -74.9897 -1020.32 -75.8843 -1020.32 -76.9897C-1020.32 -78.0952 -1019.42 -78.9897 -1018.32 -78.9897H-1011.54V-85.7709C-1011.54 -86.8764 -1010.64 -87.7709 -1009.54 -87.7709C-1009 -87.7709 -1008.5 -87.56 -1008.12 -87.185C-1007.75 -86.81 -1007.54 -86.3022 -1007.54 -85.7709V-78.9897L-1000.76 -78.9898ZM-210.878 96.3902C-210.346 96.3902 -209.839 96.6011 -209.464 96.9761C-209.089 97.3511 -208.878 97.8589 -208.878 98.3902C-208.878 98.9215 -209.089 99.4293 -209.464 99.8043C-209.839 100.179 -210.346 100.39 -210.878 100.39H-216.893V106.406C-216.893 106.937 -217.104 107.445 -217.479 107.82C-217.854 108.195 -218.362 108.406 -218.893 108.406C-219.995 108.406 -220.893 107.511 -220.893 106.406V100.394H-226.909H-226.905C-228.011 100.394 -228.905 99.4997 -228.905 98.3942C-228.905 97.2887 -228.011 96.3942 -226.905 96.3942H-220.89L-220.893 90.3747C-220.893 89.2731 -219.995 88.3747 -218.893 88.3747C-218.362 88.3747 -217.854 88.5856 -217.479 88.9606C-217.104 89.3356 -216.893 89.8474 -216.893 90.3747V96.3903L-210.878 96.3902ZM-206.44 85.9372H-206.436C-209.741 82.6325 -214.222 80.777 -218.897 80.777C-223.569 80.777 -228.05 82.6325 -231.354 85.9372C-234.655 89.2419 -236.511 93.7224 -236.511 98.3942C-236.511 103.066 -234.655 107.546 -231.354 110.851C-230.847 111.351 -230.311 111.824 -229.753 112.265L-229.737 112.277C-226.35 114.925 -222.108 116.242 -217.815 115.98C-213.522 115.718 -209.475 113.894 -206.432 110.851C-203.127 107.55 -201.268 103.066 -201.268 98.3942C-201.268 93.7224 -203.127 89.238 -206.432 85.9372L-206.44 85.9372ZM-263.44 70.8042H-263.436C-264.542 70.8042 -265.436 69.9096 -265.436 68.8042C-265.436 67.6987 -264.542 66.8042 -263.436 66.8042H-222.12C-221.589 66.8042 -221.081 67.0151 -220.706 67.3901C-220.331 67.7651 -220.12 68.2729 -220.12 68.8042C-220.12 69.3355 -220.331 69.8433 -220.706 70.2183C-221.081 70.5933 -221.589 70.8042 -222.12 70.8042L-263.44 70.8042ZM-263.44 56.6242H-263.436C-264.542 56.6242 -265.436 55.7296 -265.436 54.6242C-265.436 53.5226 -264.542 52.6242 -263.436 52.6242H-241.733H-241.737C-241.206 52.6242 -240.698 52.8351 -240.323 53.2101C-239.948 53.5851 -239.737 54.0968 -239.737 54.6242C-239.737 55.1555 -239.948 55.6672 -240.323 56.0422C-240.698 56.4172 -241.206 56.6242 -241.737 56.6242L-263.44 56.6242ZM-263.44 84.9872L-263.436 84.9911C-264.542 84.9911 -265.436 84.0926 -265.436 82.9911C-265.436 81.8856 -264.542 80.9911 -263.436 80.9911H-244.295H-244.299C-243.768 80.9911 -243.26 81.202 -242.885 81.577C-242.51 81.952 -242.299 82.4598 -242.299 82.9911C-242.299 83.5185 -242.51 84.0302 -242.885 84.4052C-243.26 84.7802 -243.768 84.9911 -244.299 84.9911L-263.44 84.9872ZM-263.44 99.1712L-263.436 99.1751C-264.542 99.1751 -265.436 98.2805 -265.436 97.1751C-265.436 96.0696 -264.542 95.1751 -263.436 95.1751H-247.291C-246.76 95.1751 -246.252 95.386 -245.877 95.761C-245.502 96.136 -245.291 96.6438 -245.291 97.1751C-245.291 97.7064 -245.502 98.2142 -245.877 98.5892C-246.252 98.9642 -246.76 99.1752 -247.291 99.1752L-263.44 99.1712ZM-225.713 50.5302H-211.248L-228.936 32.8352V47.2882C-228.932 49.0773 -227.483 50.5265 -225.694 50.5304L-225.713 50.5302ZM-208.416 79.4792V54.5342H-225.701C-229.701 54.5264 -232.94 51.2881 -232.943 47.2881V30.0111H-273.873C-275.663 30.015 -277.112 31.4681 -277.116 33.2572V108.597C-277.112 110.386 -275.663 111.835 -273.873 111.839H-235.818C-238.865 108.023 -240.518 103.281 -240.51 98.3944C-240.51 92.66 -238.233 87.1644 -234.178 83.1094C-230.123 79.0547 -224.623 76.7774 -218.893 76.7774C-215.225 76.7735 -211.62 77.7032 -208.416 79.4805L-208.416 79.4792ZM-75.8463 70.9948C-76.4322 71.4674 -77.2369 71.5729 -77.9244 71.2643L-86.4478 67.9674C-87.4711 67.565 -87.983 66.4127 -87.5884 65.3854C-87.186 64.362 -86.0336 63.8542 -85.0063 64.2487L-81.0962 65.7604C-86.2212 59.1159 -96.5302 59.7292 -100.776 67.0612H-100.772C-102.35 69.7839 -102.78 73.0221 -101.971 76.0651C-101.159 79.1081 -99.1707 81.7018 -96.4481 83.276C-89.6473 87.2174 -80.9711 83.565 -79.0031 76.0026V76.0065C-78.7257 74.9401 -77.6398 74.3034 -76.5734 74.5768C-75.507 74.8541 -74.8703 75.944 -75.1437 77.0065C-77.7726 87.1115 -89.3547 91.9945 -98.4487 86.7292L-98.4526 86.7331C-102.089 84.6237 -104.746 81.1511 -105.828 77.0886C-106.91 73.0222 -106.331 68.6902 -104.222 65.0536C-102.113 61.413 -98.6479 58.7606 -94.5815 57.6786C-90.519 56.5966 -86.1909 57.1708 -82.5544 59.2763C-80.8317 60.2724 -79.3162 61.5849 -78.0779 63.1396L-77.5505 59.9834H-77.5544C-77.363 58.8975 -76.3356 58.167 -75.2498 58.3506C-74.1639 58.5381 -73.4333 59.5615 -73.6091 60.6475L-75.1325 69.7686H-75.1364C-75.2106 70.253 -75.4645 70.6866 -75.8434 70.9952L-75.8463 70.9948ZM-98.0062 107.616C-99.1118 107.616 -100.006 106.721 -100.006 105.616C-100.006 104.514 -99.1117 103.616 -98.0062 103.616H-80.3812C-79.85 103.616 -79.3422 103.827 -78.9672 104.202C-78.5922 104.577 -78.3812 105.088 -78.3812 105.616C-78.3812 106.147 -78.5922 106.655 -78.9672 107.03C-79.3422 107.405 -79.8499 107.616 -80.3812 107.616L-98.0062 107.616ZM-105.381 100.014V100.018C-106.487 100.018 -107.381 99.1235 -107.381 98.0181C-107.381 96.9126 -106.487 96.0181 -105.381 96.0181H-73.0103C-72.479 96.0181 -71.9712 96.229 -71.5962 96.604C-71.2212 96.979 -71.0102 97.4868 -71.0102 98.0181C-71.0102 98.5494 -71.2212 99.0572 -71.5962 99.4322C-71.9712 99.8072 -72.4789 100.018 -73.0103 100.018L-105.381 100.014ZM-71.2953 51.7252H-55.9083L-74.7913 32.8422V48.2292H-74.7952C-74.7913 50.1589 -73.2288 51.7214 -71.2991 51.7292L-71.2953 51.7252ZM-78.7953 30.0102H-121.795L-121.799 30.0141C-123.729 30.018 -125.295 31.5844 -125.303 33.518V112.518C-125.295 114.448 -123.729 116.01 -121.799 116.014H-56.5721C-54.6425 116.01 -53.08 114.448 -53.0721 112.518V55.725H-71.2952C-75.4319 55.7172 -78.7874 52.3656 -78.7952 48.225L-78.7953 30.0102ZM339.155 72.7872C338.049 72.7872 337.155 71.8926 337.155 70.7872C337.155 69.6856 338.049 68.7872 339.155 68.7872H382.479C383.58 68.7872 384.479 69.6856 384.479 70.7872C384.479 71.8927 383.58 72.7872 382.479 72.7872H339.155ZM339.155 57.9162V57.9201C338.049 57.9201 337.155 57.0255 337.155 55.9201C337.155 54.8146 338.049 53.9201 339.155 53.9201H361.913H361.909C363.014 53.9201 363.909 54.8146 363.909 55.9201C363.909 57.0255 363.014 57.9201 361.909 57.9201L339.155 57.9162ZM339.155 87.6582V87.6621C338.049 87.6621 337.155 86.7636 337.155 85.6621C337.155 84.5566 338.049 83.6621 339.155 83.6621H356.085H356.081C357.186 83.6621 358.081 84.5566 358.081 85.6621C358.081 86.7637 357.186 87.6621 356.081 87.6621L339.155 87.6582ZM339.155 102.533V102.537C338.049 102.537 337.155 101.643 337.155 100.537C337.155 99.4316 338.049 98.5371 339.155 98.5371H356.085H356.081C357.186 98.5371 358.081 99.4316 358.081 100.537C358.081 101.643 357.186 102.537 356.081 102.537L339.155 102.533ZM378.714 51.7212H394.101L375.218 32.8382V48.2252H375.214C375.222 50.1549 376.784 51.7174 378.714 51.7252L378.714 51.7212ZM384.858 85.8502C385.675 85.1822 386.866 85.2603 387.589 86.0259C388.311 86.7955 388.311 87.9907 387.593 88.7603L374.64 100.998V101.002C374.253 101.366 373.741 101.561 373.21 101.545C372.683 101.53 372.183 101.303 371.819 100.916L366.065 94.971C365.37 94.1663 365.425 92.9554 366.19 92.2171C366.96 91.4827 368.171 91.4749 368.944 92.2015L373.331 96.7445L384.858 85.8502ZM201.988 107.616C200.883 107.616 199.988 106.722 199.988 105.616C199.988 104.515 200.883 103.616 201.988 103.616H219.613C220.719 103.616 221.613 104.515 221.613 105.616C221.613 106.722 220.719 107.616 219.613 107.616H201.988ZM194.617 100.015V100.018C193.516 100.018 192.617 99.1239 192.617 98.0185C192.617 96.913 193.516 96.0185 194.617 96.0185H226.984C228.09 96.0185 228.984 96.913 228.984 98.0185C228.984 99.1239 228.09 100.018 226.984 100.018L194.617 100.015ZM220.629 81.2136V81.2175C220.629 80.112 221.524 79.2175 222.629 79.2175C223.735 79.2175 224.629 80.112 224.629 81.2175V85.8308C224.629 86.362 224.418 86.8699 224.043 87.2449C223.668 87.6199 223.16 87.8308 222.629 87.8308H199.231C198.067 87.8308 197.169 86.8933 197.243 85.6199L197.313 81.2957V81.2918C197.415 80.2566 198.294 79.4715 199.333 79.491C200.376 79.5066 201.227 80.3152 201.297 81.3543L201.258 83.8309H220.629L220.629 81.2136ZM228.703 51.7176H244.09L225.207 32.8346V48.2216H225.203C225.207 50.1513 226.774 51.7177 228.703 51.7216V51.7176ZM-409.887 73.1156V73.1195C-410.992 73.1195 -411.887 72.2249 -411.887 71.1195C-411.887 70.014 -410.992 69.1195 -409.887 69.1195H-368.508C-367.976 69.1195 -367.469 69.3304 -367.094 69.7054C-366.719 70.0804 -366.508 70.5882 -366.508 71.1195C-366.508 71.6508 -366.719 72.1586 -367.094 72.5336C-367.469 72.9086 -367.976 73.1196 -368.508 73.1196L-409.887 73.1156ZM-409.887 58.9166V58.9205C-410.992 58.9205 -411.887 58.0259 -411.887 56.9205C-411.887 55.815 -410.992 54.9205 -409.887 54.9205H-388.153C-387.621 54.9205 -387.114 55.1314 -386.739 55.5064C-386.364 55.8814 -386.153 56.3892 -386.153 56.9205C-386.153 57.4518 -386.364 57.9596 -386.739 58.3346C-387.114 58.7096 -387.621 58.9206 -388.153 58.9206L-409.887 58.9166ZM-409.887 87.3146V87.3185C-410.992 87.3185 -411.887 86.424 -411.887 85.3185C-411.887 84.213 -410.992 83.3185 -409.887 83.3185H-368.508C-367.976 83.3185 -367.469 83.5294 -367.094 83.9044C-366.719 84.2794 -366.508 84.7872 -366.508 85.3185C-366.508 85.8498 -366.719 86.3576 -367.094 86.7326C-367.469 87.1076 -367.976 87.3185 -368.508 87.3185L-409.887 87.3146ZM-409.887 101.514V101.517C-410.992 101.517 -411.887 100.623 -411.887 99.5175C-411.887 98.4159 -410.992 97.5175 -409.887 97.5175H-381.774C-381.242 97.5175 -380.735 97.7284 -380.36 98.1034C-379.985 98.4784 -379.774 98.9901 -379.774 99.5175C-379.774 100.049 -379.985 100.557 -380.36 100.932C-380.735 101.307 -381.242 101.518 -381.774 101.518L-409.887 101.514ZM-692.287 65.7866L-692.291 65.7905C-692.291 64.685 -691.392 63.7905 -690.291 63.7905C-689.759 63.7905 -689.251 64.0014 -688.873 64.3764C-688.498 64.7514 -688.291 65.2592 -688.291 65.7905V74.1772L-684.146 76.5756C-683.197 77.1264 -682.869 78.3412 -683.412 79.2983C-683.962 80.2475 -685.173 80.5756 -686.13 80.0327L-691.13 77.146V77.1499C-691.841 76.8218 -692.298 76.1108 -692.298 75.3296L-692.287 65.7866ZM-679.174 62.9624L-679.178 62.9663C-684.717 57.4272 -693.698 57.4272 -699.237 62.9663C-704.776 68.5054 -704.776 77.4863 -699.237 83.0253C-696.576 85.6855 -692.967 87.1776 -689.206 87.1776C-685.444 87.1776 -681.838 85.6854 -679.179 83.0253C-676.518 80.3651 -675.022 76.7558 -675.022 72.9943C-675.022 69.2326 -676.518 65.6271 -679.179 62.9673L-679.174 62.9624ZM-689.205 54.814C-684.384 54.814 -679.759 56.732 -676.35 60.1421C-672.939 63.5483 -671.025 68.1733 -671.021 72.9971C-671.021 77.8174 -672.939 82.4463 -676.346 85.8561C-679.756 89.2663 -684.381 91.1842 -689.205 91.1842C-694.029 91.1842 -698.654 89.2662 -702.068 85.8561C-705.478 82.4459 -707.392 77.8209 -707.392 72.9971C-707.392 68.1729 -705.474 63.5479 -702.064 60.1381C-698.654 56.7279 -694.028 54.814 -689.205 54.814ZM-698.017 107.599L-698.021 107.603C-699.126 107.603 -700.021 106.708 -700.021 105.603C-700.021 104.497 -699.126 103.603 -698.021 103.603H-680.396C-679.865 103.603 -679.357 103.814 -678.982 104.189C-678.607 104.564 -678.396 105.072 -678.396 105.603C-678.396 106.134 -678.607 106.642 -678.982 107.017C-679.357 107.392 -679.865 107.603 -680.396 107.603L-698.017 107.599ZM-705.388 99.9975L-705.392 100.001C-706.494 100.001 -707.392 99.1068 -707.392 98.0014C-707.392 96.8959 -706.494 96.0014 -705.392 96.0014H-673.017C-672.49 96.0014 -671.978 96.2123 -671.603 96.5873C-671.228 96.9623 -671.017 97.4701 -671.017 98.0014C-671.017 98.5327 -671.228 99.0405 -671.603 99.4155C-671.978 99.7905 -672.49 100.001 -673.017 100.001L-705.388 99.9975ZM-671.302 51.7085H-655.915L-674.798 32.8255V48.2125L-674.806 48.2164C-674.802 50.1461 -673.236 51.7086 -671.306 51.7125L-671.302 51.7085ZM-678.802 29.9935H-721.818L-721.822 29.9974C-723.752 30.0052 -725.314 31.5716 -725.318 33.5013V112.501C-725.314 114.431 -723.752 115.993 -721.822 116.001H-656.595C-654.665 115.997 -653.099 114.435 -653.091 112.501V55.7243H-671.31C-675.451 55.7165 -678.802 52.3649 -678.81 48.2243L-678.802 29.9935ZM-550.692 67.0055L-550.696 67.0094C-551.802 67.0094 -552.696 66.1148 -552.696 65.0094C-552.696 63.9039 -551.802 63.0094 -550.696 63.0094H-515.176H-515.18C-514.649 63.0094 -514.141 63.2203 -513.766 63.5953C-513.391 63.9703 -513.18 64.4781 -513.18 65.0094C-513.18 65.5407 -513.391 66.0485 -513.766 66.4235C-514.141 66.7985 -514.649 67.0095 -515.18 67.0095L-550.692 67.0055ZM-550.692 54.8065L-550.696 54.8104C-551.802 54.8104 -552.696 53.9119 -552.696 52.8104C-552.696 51.7049 -551.802 50.8104 -550.696 50.8104H-532.04C-531.509 50.8104 -531.001 51.0213 -530.626 51.3963C-530.251 51.7713 -530.04 52.2791 -530.04 52.8104C-530.04 53.3378 -530.251 53.8495 -530.626 54.2245C-531.001 54.5995 -531.509 54.8105 -532.04 54.8105L-550.692 54.8065ZM-550.692 79.1895L-550.696 79.1934C-551.802 79.1934 -552.696 78.2988 -552.696 77.1934C-552.696 76.0879 -551.802 75.1934 -550.696 75.1934H-515.176H-515.18C-514.649 75.1934 -514.141 75.4043 -513.766 75.7793C-513.391 76.1543 -513.18 76.6621 -513.18 77.1934C-513.18 77.7247 -513.391 78.2325 -513.766 78.6075C-514.141 78.9825 -514.649 79.1935 -515.18 79.1935L-550.692 79.1895ZM-550.692 91.3885L-550.696 91.3924C-551.802 91.3924 -552.696 90.4978 -552.696 89.3924C-552.696 88.2869 -551.802 87.3924 -550.696 87.3924H-515.176H-515.18C-514.649 87.3924 -514.141 87.6033 -513.766 87.9783C-513.391 88.3533 -513.18 88.8611 -513.18 89.3924C-513.18 89.9237 -513.391 90.4315 -513.766 90.8065C-514.141 91.1815 -514.649 91.3925 -515.18 91.3925L-550.692 91.3885ZM-517.571 48.0765H-505.051L-520.297 32.8345V45.3575V45.3536C-520.289 46.8575 -519.075 48.0765 -517.571 48.0765ZM-524.29 30.0025H-560.923C-562.431 30.0025 -563.65 31.2252 -563.65 32.733V100.542C-563.646 102.042 -562.431 103.261 -560.927 103.265H-504.943C-503.443 103.257 -502.228 102.042 -502.224 100.542V52.077H-517.583C-521.29 52.0731 -524.294 49.0692 -524.302 45.3582L-524.29 30.0025ZM-567.642 42.7605H-573.451C-574.951 42.7644 -576.165 43.9753 -576.169 45.4753V113.291C-576.165 114.791 -574.951 116.006 -573.451 116.014H-517.467C-515.967 116.01 -514.748 114.791 -514.744 113.291V107.26H-560.916C-564.623 107.252 -567.627 104.248 -567.635 100.541L-567.642 42.7605ZM-821.302 51.7175H-805.915L-824.798 32.8345V48.2215H-824.802C-824.794 50.1512 -823.232 51.7136 -821.302 51.7175ZM-855.38 100.006C-856.485 100.006 -857.38 99.1119 -857.38 98.0065C-857.38 96.9049 -856.485 96.0065 -855.38 96.0065H-823.013C-822.486 96.0065 -821.974 96.2174 -821.599 96.5924C-821.224 96.9674 -821.013 97.4752 -821.013 98.0065C-821.013 98.5378 -821.224 99.0456 -821.599 99.4206C-821.974 99.7956 -822.486 100.007 -823.013 100.007L-855.38 100.006ZM-829.38 81.2055C-829.38 80.1039 -828.485 79.2055 -827.38 79.2055C-826.849 79.2055 -826.341 79.4164 -825.966 79.7914C-825.591 80.1664 -825.38 80.6781 -825.38 81.2055V85.8227C-825.38 86.3501 -825.591 86.8618 -825.966 87.2368C-826.341 87.6118 -826.849 87.8228 -827.38 87.8228H-850.778C-851.942 87.8228 -852.848 86.8853 -852.766 85.6118L-852.696 81.2876V81.2837C-852.676 80.186 -851.774 79.3071 -850.673 79.3228C-849.575 79.3424 -848.7 80.2447 -848.712 81.3462L-848.759 83.8228H-829.38L-829.38 81.2055ZM-848.157 71.0215V71.0254C-848.532 70.6504 -848.743 70.1426 -848.743 69.6113C-848.743 69.08 -848.532 68.5683 -848.157 68.1933C-847.376 67.4159 -846.11 67.4159 -845.329 68.1933L-841.149 72.3769L-841.333 60.1929H-841.329C-841.337 59.6655 -841.134 59.1577 -840.762 58.7827C-840.395 58.4038 -839.891 58.1889 -839.364 58.1811C-838.262 58.1694 -837.36 59.0522 -837.345 60.1499L-837.157 72.5209L-832.833 68.1967V68.1928C-832.052 67.4155 -830.79 67.4155 -830.009 68.1928C-829.634 68.5678 -829.423 69.0795 -829.423 69.6108C-829.423 70.1421 -829.634 70.6499 -830.009 71.0249L-837.669 78.689C-838.45 79.4703 -839.716 79.4703 -840.497 78.689L-848.157 71.0215ZM-828.805 29.9905L-871.809 29.9944C-873.743 30.0022 -875.305 31.5686 -875.309 33.4983V112.498C-875.305 114.428 -873.739 115.994 -871.809 115.998H-806.582C-804.652 115.994 -803.09 114.428 -803.086 112.498V55.7253H-821.313C-825.45 55.7175 -828.801 52.362 -828.805 48.2253L-828.805 29.9905ZM-964.645 91.2915V91.2993C-963.864 90.518 -962.598 90.518 -961.817 91.2993C-961.442 91.6743 -961.231 92.1821 -961.231 92.7134C-961.231 93.2447 -961.442 93.7525 -961.817 94.1275L-966.075 98.3814L-961.817 102.639C-961.036 103.417 -961.036 104.686 -961.817 105.467C-962.598 106.245 -963.864 106.245 -964.645 105.467L-968.903 101.209L-973.145 105.479C-973.926 106.252 -975.188 106.252 -975.973 105.479C-976.754 104.698 -976.754 103.432 -975.973 102.651L-971.719 98.3931L-975.973 94.1392C-976.348 93.7642 -976.559 93.2564 -976.559 92.7251C-976.559 92.1938 -976.348 91.686 -975.973 91.311C-975.598 90.9321 -975.09 90.7211 -974.559 90.7211C-974.028 90.7211 -973.52 90.9321 -973.145 91.311L-968.891 95.5649L-964.645 91.2915ZM-956.446 85.9165L-956.442 85.9243C-959.747 82.6196 -964.227 80.7641 -968.903 80.7641C-973.575 80.7641 -978.055 82.6196 -981.36 85.9243C-984.665 89.229 -986.52 93.7095 -986.52 98.3813C-986.52 103.053 -984.665 107.537 -981.36 110.838C-980.856 111.342 -980.321 111.811 -979.758 112.252L-979.743 112.264C-976.356 114.913 -972.114 116.229 -967.821 115.967C-963.528 115.705 -959.481 113.881 -956.438 110.838C-953.133 107.534 -951.277 103.053 -951.277 98.3813C-951.277 93.7095 -953.133 89.229 -956.438 85.9243L-956.446 85.9165ZM-1013.45 70.7835L-1013.44 70.7913C-1014.55 70.7913 -1015.44 69.8967 -1015.44 68.7913C-1015.44 67.6858 -1014.55 66.7913 -1013.44 66.7913H-972.13H-972.134C-971.603 66.7913 -971.095 67.0022 -970.72 67.3772C-970.345 67.7522 -970.134 68.26 -970.134 68.7913C-970.134 69.3226 -970.345 69.8304 -970.72 70.2054C-971.095 70.5804 -971.603 70.7914 -972.134 70.7914L-1013.45 70.7835ZM-1013.45 56.6035L-1013.44 56.6113C-1014.55 56.6113 -1015.44 55.7168 -1015.44 54.6113C-1015.44 53.5097 -1014.55 52.6113 -1013.44 52.6113H-991.747C-991.219 52.6113 -990.708 52.8222 -990.333 53.1972C-989.958 53.5722 -989.747 54.084 -989.747 54.6113C-989.747 55.1426 -989.958 55.6504 -990.333 56.0254C-990.708 56.4004 -991.219 56.6114 -991.747 56.6114L-1013.45 56.6035ZM-1013.45 84.9665L-1013.44 84.9782C-1014.55 84.9782 -1015.44 84.0797 -1015.44 82.9782C-1015.44 81.8727 -1014.55 80.9782 -1013.44 80.9782H-994.309C-993.778 80.9782 -993.27 81.1891 -992.895 81.5641C-992.52 81.9391 -992.309 82.4469 -992.309 82.9782C-992.309 83.5056 -992.52 84.0173 -992.895 84.3923C-993.27 84.7673 -993.778 84.9783 -994.309 84.9783L-1013.45 84.9665ZM-1013.45 99.1505L-1013.44 99.1622C-1014.55 99.1622 -1015.44 98.2637 -1015.44 97.1622C-1015.44 96.0567 -1014.55 95.1622 -1013.44 95.1622H-997.301H-997.305C-996.773 95.1622 -996.266 95.3731 -995.891 95.7481C-995.516 96.1231 -995.305 96.6309 -995.305 97.1622C-995.305 97.6896 -995.516 98.2013 -995.891 98.5763C-996.266 98.9513 -996.773 99.1623 -997.305 99.1623L-1013.45 99.1505ZM-975.723 50.5095L-961.246 50.5173L-978.941 32.8223V47.2713L-978.937 47.2752C-978.937 49.0643 -977.488 50.5135 -975.699 50.5174L-975.723 50.5095ZM-958.414 79.4785V54.5335H-975.703C-979.699 54.5257 -982.937 51.2874 -982.945 47.2874V30.0104H-1023.87C-1025.66 30.0143 -1027.11 31.4674 -1027.12 33.2565V108.596C-1027.11 110.389 -1025.66 111.839 -1023.87 111.839H-985.816C-988.859 108.018 -990.515 103.28 -990.507 98.3937C-990.507 92.6593 -988.23 87.1637 -984.175 83.1087C-980.125 79.054 -974.625 76.7767 -968.89 76.7767C-965.226 76.7689 -961.621 77.6985 -958.413 79.4798L-958.414 79.4785ZM336.986 -69.5615C335.885 -69.5615 334.986 -70.4561 334.986 -71.5615C334.986 -72.667 335.885 -73.5615 336.986 -73.5615H371.908C372.439 -73.5615 372.947 -73.3506 373.322 -72.9756C373.697 -72.6006 373.908 -72.0928 373.908 -71.5615C373.908 -71.0302 373.697 -70.5224 373.322 -70.1474C372.947 -69.7724 372.439 -69.5615 371.908 -69.5615L336.986 -69.5615ZM336.986 -81.5455C335.885 -81.5455 334.986 -82.4401 334.986 -83.5455C334.986 -84.651 335.885 -85.5455 336.986 -85.5455H355.33C355.861 -85.5455 356.369 -85.3346 356.748 -84.9596C357.123 -84.5846 357.33 -84.0768 357.33 -83.5455C357.33 -83.0142 357.123 -82.5064 356.748 -82.1314C356.369 -81.7564 355.861 -81.5455 355.33 -81.5455L336.986 -81.5455ZM336.986 -57.5685C335.885 -57.5685 334.986 -58.4631 334.986 -59.5685C334.986 -60.674 335.885 -61.5685 336.986 -61.5685H371.908C372.439 -61.5685 372.947 -61.3576 373.322 -60.9826C373.697 -60.6076 373.908 -60.0998 373.908 -59.5685C373.908 -59.0372 373.697 -58.5294 373.322 -58.1544C372.947 -57.7794 372.439 -57.5685 371.908 -57.5685L336.986 -57.5685ZM336.986 -45.5845C335.885 -45.5845 334.986 -46.483 334.986 -47.5845C334.986 -48.69 335.885 -49.5845 336.986 -49.5845H371.908C372.439 -49.5845 372.947 -49.3736 373.322 -48.9986C373.697 -48.6236 373.908 -48.1158 373.908 -47.5845C373.908 -47.0532 373.697 -46.5454 373.322 -46.1704C372.947 -45.7954 372.439 -45.5844 371.908 -45.5844L336.986 -45.5845ZM369.548 -88.2405H381.786L366.915 -103.124V-90.8895C366.919 -89.4325 368.099 -88.2528 369.552 -88.2489L369.548 -88.2405ZM382.325 -102.288H394.559L379.688 -117.159L379.692 -104.925C379.696 -103.468 380.872 -102.288 382.329 -102.28L382.325 -102.288ZM388.603 -48.0335H394.751C396.208 -48.0413 397.388 -49.221 397.392 -50.6741V-98.2871H382.322C378.665 -98.2989 375.7 -101.264 375.693 -104.924V-119.983H339.693C338.24 -119.975 337.06 -118.795 337.056 -117.338V-109.94H364.935C365.357 -109.94 365.771 -109.799 366.107 -109.538L366.134 -109.518L366.154 -109.502C366.216 -109.452 366.271 -109.401 366.329 -109.342L388.021 -87.6513V-87.6552C388.036 -87.6357 388.056 -87.6161 388.075 -87.6005C388.091 -87.5888 388.103 -87.5732 388.114 -87.5614C388.474 -87.1552 388.649 -86.6239 388.599 -86.0848V-48.0378L388.603 -48.0335ZM384.618 -45.8538V-45.8577C384.614 -45.9163 384.614 -45.9749 384.618 -46.0335C384.614 -46.0921 384.614 -46.1507 384.618 -46.2093V-84.2443H369.552C365.888 -84.2482 362.919 -87.217 362.911 -90.8849V-105.944L326.927 -105.94C325.47 -105.94 324.295 -104.76 324.291 -103.307V-36.6272C324.295 -35.1702 325.47 -33.9905 326.927 -33.9866H381.975C383.432 -33.9905 384.611 -35.1702 384.615 -36.6272L384.618 -45.8538ZM204.298 -43.2679C203.193 -43.2679 202.298 -44.1625 202.298 -45.2679C202.298 -46.3734 203.193 -47.2679 204.298 -47.2679H226.407C226.938 -47.2679 227.446 -47.057 227.821 -46.682C228.196 -46.307 228.407 -45.7992 228.407 -45.2679C228.407 -44.7366 228.196 -44.2288 227.821 -43.8538C227.446 -43.4788 226.938 -43.2679 226.407 -43.2679L204.298 -43.2679ZM222.376 -63.8699L221.61 -59.4207L225.079 -62.3074L222.376 -63.8699ZM253.814 -110.35L249.615 -112.776L249.599 -112.748L246.74 -107.799L250.939 -105.366L253.74 -110.213L253.814 -110.35ZM181.826 -77.1509H181.822C180.721 -77.1509 179.822 -78.0455 179.822 -79.1509C179.822 -80.2525 180.721 -81.1509 181.822 -81.1509H218.08C218.611 -81.1509 219.119 -80.94 219.494 -80.565C219.869 -80.19 220.08 -79.6783 220.08 -79.1509C220.08 -78.6196 219.869 -78.1118 219.494 -77.7368C219.119 -77.3618 218.611 -77.1509 218.08 -77.1509L181.826 -77.1509ZM181.826 -91.5959H181.822C180.721 -91.5959 179.822 -92.4905 179.822 -93.5959C179.822 -94.7014 180.721 -95.5959 181.822 -95.5959H203.931C204.459 -95.5959 204.97 -95.385 205.345 -95.01C205.72 -94.635 205.931 -94.1272 205.931 -93.5959C205.931 -93.0646 205.72 -92.5568 205.345 -92.1818C204.97 -91.8068 204.459 -91.5959 203.931 -91.5959L181.826 -91.5959ZM181.826 -62.7049H181.822C180.721 -62.7049 179.822 -63.5995 179.822 -64.7049C179.822 -65.8104 180.721 -66.7049 181.822 -66.7049H211.963C212.495 -66.7049 213.002 -66.494 213.377 -66.119C213.752 -65.744 213.963 -65.2362 213.963 -64.7049C213.963 -64.1736 213.752 -63.6658 213.377 -63.2908C213.002 -62.9158 212.495 -62.7049 211.963 -62.7049L181.826 -62.7049ZM220.256 -97.7249H235.057L216.905 -115.873V-101.072C216.909 -99.2281 218.405 -97.7321 220.249 -97.7321L220.256 -97.7249ZM212.916 -118.702L171.193 -118.698C169.35 -118.698 167.854 -117.206 167.846 -115.362V-38.6161C167.85 -36.7723 169.346 -35.2763 171.193 -35.2723H234.552H234.548C236.396 -35.2801 237.888 -36.7723 237.896 -38.6161V-74.8071L230.338 -61.7091C230.314 -61.674 230.298 -61.6349 230.275 -61.5997C230.138 -61.3576 229.951 -61.1505 229.724 -60.9904L219.998 -52.8927C219.154 -52.1974 217.904 -52.3106 217.197 -53.1466C216.826 -53.5958 216.67 -54.1818 216.767 -54.756L218.931 -67.358C218.978 -67.6197 219.08 -67.8736 219.22 -68.1002L234.021 -93.7212H220.267C216.217 -93.7251 212.931 -97.0103 212.927 -101.061L212.916 -118.702ZM238.131 -83.1749C238.155 -83.214 238.178 -83.2492 238.198 -83.2882L248.956 -101.925L244.757 -104.351L240.155 -96.3979C240.143 -96.3745 240.131 -96.3471 240.12 -96.3237V-96.3003C240.096 -96.2651 240.077 -96.2339 240.053 -96.1987L239.311 -94.9057V-94.9018C239.268 -94.8198 239.221 -94.7416 239.167 -94.6635L223.659 -67.8085L227.858 -65.3827L238.131 -83.1749ZM51.1913 -77.4366C51.8671 -78.3038 53.1211 -78.4561 53.9883 -77.7804C54.8555 -77.1007 55.0078 -75.8507 54.3281 -74.9835L50.2811 -69.8194V-69.8155C49.8983 -69.3311 49.3125 -69.0459 48.6953 -69.0499C48.0742 -69.0577 47.4922 -69.3467 47.1172 -69.8389L43.0898 -74.9834C42.4141 -75.8506 42.5664 -77.1006 43.4297 -77.7803C44.3008 -78.4561 45.5508 -78.3038 46.2305 -77.4366L46.7188 -76.8116V-89.1236C46.7227 -90.2252 47.6172 -91.1119 48.7188 -91.1119V-91.1236H66.7888C67.3201 -91.1236 67.8279 -90.9126 68.2029 -90.5376C68.5779 -90.1626 68.7888 -89.6548 68.7888 -89.1235C68.7888 -88.5923 68.5779 -88.0844 68.2029 -87.7094C67.8279 -87.3344 67.3201 -87.1235 66.7888 -87.1235H50.7028V-76.8145L51.1913 -77.4366ZM70.4923 -76.5421L70.4884 -76.5382C70.1642 -76.1241 69.6876 -75.8507 69.1603 -75.7882C68.6368 -75.7257 68.1056 -75.8741 67.6915 -76.1984C66.8243 -76.878 66.6681 -78.132 67.3439 -78.9992L71.297 -84.0344C72.1681 -85.2532 73.7736 -85.2532 74.6486 -84.0344L78.59 -78.9953C78.9181 -78.5812 79.0665 -78.0499 79.0001 -77.5226C78.9337 -76.9991 78.6642 -76.5187 78.2423 -76.1945C77.8282 -75.8663 77.297 -75.7179 76.7736 -75.7843C76.2462 -75.8468 75.7697 -76.1163 75.4454 -76.5343L74.965 -77.1515V-64.8505H74.9611C74.9611 -64.3231 74.7501 -63.8114 74.3751 -63.4364C74.0001 -63.0614 73.4923 -62.8504 72.9611 -62.8504H54.8831C53.7776 -62.8504 52.8831 -63.7489 52.8831 -64.8504C52.8831 -65.9559 53.7776 -66.8504 54.8831 -66.8504H70.969V-77.1514L70.4923 -76.5421ZM52.0314 -42.3821C50.9259 -42.3821 50.0314 -43.2766 50.0314 -44.3821C50.0314 -45.4876 50.9259 -46.3821 52.0314 -46.3821H69.6564C70.1876 -46.3821 70.6954 -46.1712 71.0704 -45.7962C71.4454 -45.4212 71.6564 -44.9134 71.6564 -44.3821C71.6564 -43.8508 71.4454 -43.343 71.0704 -42.968C70.6954 -42.593 70.1876 -42.382 69.6564 -42.382L52.0314 -42.3821ZM44.6603 -49.9837C43.5548 -49.9837 42.6603 -50.8782 42.6603 -51.9837C42.6603 -53.0853 43.5548 -53.9837 44.6603 -53.9837H77.0272C77.5546 -53.9837 78.0663 -53.7728 78.4413 -53.3978C78.8163 -53.0228 79.0273 -52.511 79.0273 -51.9837C79.0273 -51.4524 78.8163 -50.9446 78.4413 -50.5696C78.0663 -50.1946 77.5546 -49.9836 77.0272 -49.9836L44.6603 -49.9837ZM78.7383 -98.2767H94.1252L75.2422 -117.16V-101.773H75.2383C75.2461 -99.8469 76.8086 -98.2845 78.7383 -98.2767ZM71.2422 -119.992H28.2301C26.3004 -119.988 24.734 -118.421 24.7301 -116.492V-37.4917C24.734 -35.5581 26.2965 -33.9917 28.2301 -33.9878H93.4572C95.3868 -33.9956 96.9493 -35.5581 96.9532 -37.4917H96.965V-94.2727H78.7379C74.6012 -94.2805 71.2496 -97.636 71.2418 -101.773L71.2422 -119.992ZM-115.518 -76.0817C-116.62 -76.0817 -117.518 -76.9762 -117.518 -78.0817C-117.518 -79.1872 -116.619 -80.0817 -115.518 -80.0817H-86.2129C-85.6816 -80.0817 -85.1738 -79.8708 -84.7988 -79.4958C-84.4238 -79.1208 -84.2128 -78.613 -84.2128 -78.0817C-84.2128 -77.5504 -84.4238 -77.0426 -84.7988 -76.6676C-85.1738 -76.2926 -85.6816 -76.0816 -86.2129 -76.0816L-115.518 -76.0817ZM-115.518 -84.195C-116.62 -84.195 -117.518 -85.0895 -117.518 -86.195C-117.518 -87.3005 -116.619 -88.195 -115.518 -88.195H-80.1738C-79.6426 -88.195 -79.1348 -87.9841 -78.7598 -87.6091C-78.3848 -87.2341 -78.1738 -86.7262 -78.1738 -86.195C-78.1738 -85.6637 -78.3848 -85.1559 -78.7598 -84.7809C-79.1348 -84.4059 -79.6425 -84.1949 -80.1738 -84.1949L-115.518 -84.195ZM-109.135 -92.3083C-110.241 -92.3083 -111.135 -93.2028 -111.135 -94.3083C-111.135 -95.4099 -110.241 -96.3083 -109.135 -96.3083H-70.553C-70.0257 -96.3083 -69.514 -96.0974 -69.139 -95.7224C-68.764 -95.3474 -68.553 -94.8356 -68.553 -94.3083C-68.553 -93.777 -68.764 -93.2692 -69.139 -92.8942C-69.514 -92.5192 -70.0256 -92.3082 -70.553 -92.3082L-109.135 -92.3083ZM-101.123 -101.707C-102.229 -101.707 -103.123 -102.601 -103.123 -103.707C-103.123 -104.812 -102.229 -105.707 -101.123 -105.707H-84.9474C-84.4161 -105.707 -83.9083 -105.496 -83.5333 -105.121C-83.1583 -104.746 -82.9473 -104.238 -82.9473 -103.707C-82.9473 -103.175 -83.1583 -102.668 -83.5333 -102.293C-83.9083 -101.918 -84.4161 -101.707 -84.9474 -101.707L-101.123 -101.707ZM-57.9244 -73.2147C-60.8111 -76.1053 -65.7759 -74.0506 -65.7759 -69.9608C-65.7759 -65.871 -60.8112 -63.8163 -57.9244 -66.7069V-66.703C-57.0611 -67.5663 -56.5728 -68.7382 -56.5728 -69.9608C-56.5728 -71.1796 -57.061 -72.3514 -57.9244 -73.2147ZM-61.1705 -78.5585C-56.4205 -78.5585 -52.5688 -74.7069 -52.5688 -69.9608C-52.5688 -65.2108 -56.4205 -61.3592 -61.1705 -61.3592C-65.9205 -61.3592 -69.772 -65.2108 -69.772 -69.9608C-69.772 -74.7069 -65.9205 -78.5585 -61.1705 -78.5585ZM-64.4127 -83.1249C-64.5923 -82.9022 -64.733 -82.6483 -64.8267 -82.3788C-65.0377 -81.8905 -65.4361 -81.5116 -65.9283 -81.3202C-66.4244 -81.1288 -66.9713 -81.1405 -67.4556 -81.3554C-68.3814 -81.7538 -69.3306 -81.4921 -70.2837 -81.3437H-70.2876C-71.4634 -81.1718 -72.3853 -80.246 -72.5571 -79.0664C-72.7095 -78.1171 -72.979 -77.1679 -72.5688 -76.2421C-72.354 -75.7461 -72.3462 -75.1796 -72.5571 -74.6758C-72.7642 -74.1718 -73.1665 -73.7773 -73.6743 -73.578C-74.5962 -73.2187 -75.1002 -72.3358 -75.6548 -71.578C-76.3697 -70.6249 -76.3697 -69.3125 -75.6548 -68.3593C-75.1314 -67.6444 -74.5884 -66.7108 -73.7564 -66.3866C-73.7017 -66.367 -73.6431 -66.3475 -73.5845 -66.3241C-72.5767 -65.8748 -72.1198 -64.6952 -72.5651 -63.6874C-72.9635 -62.7616 -72.7057 -61.8124 -72.5533 -60.8671V-60.8631C-72.3776 -59.6873 -71.4556 -58.7615 -70.2799 -58.5858C-69.3268 -58.4374 -68.3737 -58.1718 -67.4518 -58.5741C-66.9518 -58.7929 -66.3854 -58.7968 -65.8854 -58.5898C-65.3815 -58.3788 -64.9831 -57.9765 -64.7877 -57.4687C-64.4283 -56.5429 -63.5533 -56.0429 -62.7877 -55.4843C-61.8346 -54.7694 -60.5261 -54.7694 -59.5729 -55.4843C-58.8542 -56.0038 -57.9167 -56.5546 -57.5963 -57.3827C-57.5768 -57.4412 -57.5573 -57.4959 -57.5338 -57.5545C-57.0846 -58.5584 -55.9088 -59.0154 -54.901 -58.574C-53.9713 -58.1756 -53.0261 -58.4373 -52.0729 -58.5857C-50.8972 -58.7615 -49.9752 -59.6874 -49.7995 -60.8631C-49.6472 -61.8084 -49.3776 -62.7614 -49.7878 -63.6833V-63.6873C-50.0065 -64.1873 -50.0104 -64.7537 -49.8034 -65.2537C-49.5925 -65.7576 -49.1901 -66.156 -48.6823 -66.3514C-47.7565 -66.7068 -47.2565 -67.5897 -46.7057 -68.3514H-46.7018C-45.987 -69.3084 -45.987 -70.617 -46.7018 -71.5741C-47.2175 -72.2889 -47.7682 -73.2303 -48.6002 -73.5468C-48.6588 -73.5624 -48.7135 -73.5858 -48.7643 -73.6132C-49.7721 -74.0585 -50.2331 -75.2343 -49.7916 -76.246C-49.3931 -77.1717 -49.6509 -78.121 -49.8033 -79.0702C-49.9752 -80.246 -50.901 -81.1718 -52.0767 -81.3475C-52.1431 -81.3592 -52.2056 -81.3709 -52.2759 -81.3748C-53.1588 -81.5271 -54.0455 -81.7381 -54.9048 -81.3592C-55.4048 -81.1404 -55.9712 -81.1365 -56.4712 -81.3475C-56.9751 -81.5545 -57.3696 -81.9568 -57.565 -82.4647C-57.9283 -83.3904 -58.8073 -83.8866 -59.5767 -84.4491C-60.5298 -85.1639 -61.8384 -85.1639 -62.7915 -84.4491C-63.3149 -84.0701 -64.0532 -83.6014 -64.4204 -83.1288L-64.4127 -83.1249ZM-66.811 -53.5229V-39.5739L-62.5377 -43.5036V-43.5075C-61.772 -44.2067 -60.6002 -44.2067 -59.8345 -43.5075C-58.4165 -42.1911 -56.983 -40.8864 -55.5573 -39.5778V-53.5228C-56.0924 -53.0697 -56.6511 -52.6439 -57.233 -52.2494C-59.5847 -50.5111 -62.7917 -50.5111 -65.1393 -52.2494C-65.7213 -52.6439 -66.2797 -53.0698 -66.811 -53.5229ZM-61.811 -88.9569V-104.684C-63.9048 -105.34 -65.5416 -106.977 -66.2017 -109.067H-119.878C-120.534 -106.981 -122.171 -105.344 -124.26 -104.684V-76.9259C-122.167 -76.2736 -120.526 -74.6368 -119.87 -72.5431H-79.6708C-79.4638 -73.0236 -79.206 -73.4806 -78.8974 -73.9025C-78.1826 -74.883 -77.7138 -75.6369 -76.7255 -76.3908C-76.8896 -77.6056 -76.6865 -78.4885 -76.499 -79.6799H-76.5029C-76.0771 -82.5744 -73.8076 -84.8518 -70.9091 -85.2776C-69.7098 -85.4768 -68.8349 -85.676 -67.62 -85.512C-66.8583 -86.4964 -66.1122 -86.969 -65.1317 -87.6761H-65.1356C-64.1629 -88.3909 -63.0145 -88.8323 -61.8114 -88.9495L-61.811 -88.9569ZM-53.9088 -85.5741V-114.898C-53.9088 -116.097 -55.0377 -116.961 -56.2565 -116.961L-129.811 -116.965C-131.03 -116.965 -132.159 -116.101 -132.159 -114.902V-66.726C-132.159 -65.5268 -131.03 -64.6674 -129.811 -64.6674V-64.6557H-77.8854C-78.2253 -65.0698 -78.5261 -65.5112 -78.8854 -66.0151H-78.8893C-79.4479 -66.7768 -79.8386 -67.6479 -80.0417 -68.5737H-121.565H-121.561C-122.666 -68.5737 -123.561 -69.4682 -123.561 -70.5737C-123.561 -71.2846 -123.842 -71.9682 -124.346 -72.4682C-124.85 -72.9721 -125.533 -73.2533 -126.244 -73.2533C-127.35 -73.2533 -128.244 -74.1479 -128.244 -75.2533V-106.378C-128.244 -107.484 -127.35 -108.378 -126.244 -108.378C-125.533 -108.378 -124.85 -108.664 -124.346 -109.167C-123.846 -109.671 -123.561 -110.351 -123.561 -111.066C-123.561 -112.167 -122.666 -113.066 -121.561 -113.066H-64.4948C-63.9635 -113.066 -63.4557 -112.855 -63.0807 -112.48C-62.7057 -112.105 -62.4948 -111.593 -62.4948 -111.066C-62.4948 -110.351 -62.2134 -109.667 -61.7095 -109.163C-61.2095 -108.66 -60.5259 -108.374 -59.8112 -108.374C-59.2838 -108.374 -58.7759 -108.163 -58.4009 -107.788C-58.0259 -107.413 -57.8189 -106.906 -57.8228 -106.374V-88.0624C-57.6236 -87.9413 -57.4244 -87.8124 -57.2213 -87.6639C-56.2408 -86.9569 -55.4908 -86.4842 -54.733 -85.4998C-54.4595 -85.535 -54.1822 -85.5545 -53.9048 -85.5545L-53.9088 -85.5741ZM-247.979 -42.3901C-249.084 -42.3901 -249.979 -43.2846 -249.979 -44.3901C-249.979 -45.4917 -249.084 -46.3901 -247.979 -46.3901H-230.354C-229.823 -46.3901 -229.315 -46.1792 -228.94 -45.8042C-228.565 -45.4292 -228.354 -44.9174 -228.354 -44.3901C-228.354 -43.8588 -228.565 -43.351 -228.94 -42.976C-229.315 -42.601 -229.822 -42.39 -230.354 -42.39L-247.979 -42.3901ZM-255.35 -49.9917V-49.9878C-256.451 -49.9878 -257.35 -50.8823 -257.35 -51.9878C-257.35 -53.0933 -256.451 -53.9878 -255.35 -53.9878H-222.983C-222.452 -53.9878 -221.944 -53.7769 -221.569 -53.4019C-221.194 -53.0269 -220.983 -52.519 -220.983 -51.9878C-220.983 -51.4565 -221.194 -50.9487 -221.569 -50.5737C-221.944 -50.1987 -222.452 -49.9877 -222.983 -49.9877L-255.35 -49.9917ZM-235.905 -83.0897L-235.901 -83.0858C-235.12 -83.8671 -233.854 -83.8671 -233.073 -83.0858C-232.296 -82.3046 -232.296 -81.0389 -233.073 -80.2577L-236.335 -76.9921L-233.073 -73.7304C-232.296 -72.9492 -232.296 -71.6835 -233.073 -70.9023C-233.854 -70.121 -235.12 -70.121 -235.901 -70.9023L-239.163 -74.164L-242.428 -70.9023C-243.209 -70.121 -244.475 -70.121 -245.256 -70.9023C-246.038 -71.6835 -246.038 -72.9492 -245.256 -73.7304L-241.991 -76.9921L-245.256 -80.2577C-246.038 -81.0389 -246.038 -82.3046 -245.256 -83.0858C-244.475 -83.867 -243.209 -83.8671 -242.428 -83.0858L-239.163 -79.8202L-235.905 -83.0897ZM-229.135 -87.0272V-87.0194C-234.674 -92.5585 -243.655 -92.5585 -249.194 -87.0194C-254.73 -81.4803 -254.73 -72.5034 -249.194 -66.9644C-246.534 -64.3042 -242.925 -62.8082 -239.163 -62.8082C-235.402 -62.8082 -231.796 -64.3043 -229.136 -66.9644C-226.476 -69.6206 -224.98 -73.23 -224.98 -76.9914C-224.98 -80.7531 -226.476 -84.3586 -229.136 -87.0184L-229.135 -87.0272ZM-239.162 -95.1795C-234.338 -95.1795 -229.713 -93.2615 -226.303 -89.8514C-222.897 -86.4412 -220.979 -81.8123 -220.979 -76.9924C-220.983 -72.1682 -222.897 -67.5432 -226.307 -64.1374C-229.717 -60.7272 -234.342 -58.8093 -239.162 -58.8093C-243.986 -58.8093 -248.611 -60.7234 -252.021 -64.1335C-255.431 -67.5437 -257.349 -72.1687 -257.349 -76.9925C-257.349 -81.8167 -255.435 -86.4417 -252.025 -89.8515C-248.611 -93.2617 -243.986 -95.1795 -239.162 -95.1795ZM-221.264 -98.285H-205.877L-224.76 -117.168V-101.781L-224.764 -101.777C-224.756 -99.8474 -223.194 -98.2849 -221.264 -98.2771L-221.264 -98.285ZM-228.764 -120H-271.78V-119.992C-273.71 -119.988 -275.269 -118.426 -275.276 -116.496V-37.4961C-275.273 -35.5625 -273.71 -34 -271.78 -33.9922H-206.553C-204.62 -33.9961 -203.053 -35.5625 -203.049 -37.4961V-94.2731H-221.268C-225.409 -94.2809 -228.761 -97.6364 -228.768 -101.773L-228.764 -120ZM-379.284 -55.7812C-378.909 -55.4062 -378.698 -54.8984 -378.698 -54.3671C-378.698 -53.8358 -378.909 -53.328 -379.284 -52.953C-379.659 -52.578 -380.167 -52.3671 -380.698 -52.3671C-381.23 -52.3671 -381.738 -52.578 -382.113 -52.953C-385.288 -56.1327 -385.288 -61.2811 -382.113 -64.465C-381.327 -65.2384 -380.066 -65.2384 -379.284 -64.465C-378.909 -64.0861 -378.698 -63.5783 -378.698 -63.047C-378.698 -62.5157 -378.909 -62.0079 -379.284 -61.6329C-380.058 -60.8555 -380.495 -59.8048 -380.495 -58.7071C-380.495 -57.6094 -380.058 -56.5586 -379.284 -55.7812ZM-376.359 -68.641V-68.6371C-381.843 -68.6332 -386.284 -64.1879 -386.284 -58.7074C-386.284 -53.2269 -381.843 -48.7816 -376.359 -48.7816C-373.726 -48.7777 -371.202 -49.8207 -369.339 -51.6839C-367.468 -53.5394 -366.417 -56.0706 -366.421 -58.7034C-366.421 -64.1878 -370.866 -68.6331 -376.351 -68.6331L-376.359 -68.641ZM-362.644 -45.039L-362.687 -44.996C-363.296 -44.3632 -363.288 -43.3554 -362.667 -42.7343L-354.39 -34.4531V-34.4492C-353.929 -33.9922 -353.237 -33.8555 -352.636 -34.1055C-352.034 -34.3555 -351.644 -34.9375 -351.64 -35.5899C-351.64 -36.0157 -351.808 -36.4219 -352.112 -36.7227L-360.394 -45.0079C-360.694 -45.3087 -361.104 -45.4805 -361.534 -45.4766C-361.948 -45.4844 -362.347 -45.3243 -362.644 -45.0352V-45.039ZM-413.042 -79.281L-413.045 -79.2771C-414.151 -79.2771 -415.045 -80.1716 -415.045 -81.2771C-415.045 -82.3826 -414.151 -83.2771 -413.045 -83.2771H-371.818C-371.291 -83.2771 -370.779 -83.0662 -370.404 -82.6912C-370.029 -82.3162 -369.818 -81.8083 -369.818 -81.2771C-369.818 -80.7458 -370.029 -80.238 -370.404 -79.863C-370.779 -79.488 -371.291 -79.277 -371.818 -79.277L-413.042 -79.281ZM-413.042 -93.429L-413.045 -93.4251C-414.151 -93.4251 -415.045 -94.3235 -415.045 -95.4251C-415.045 -96.5306 -414.151 -97.4251 -413.045 -97.4251H-391.393C-390.862 -97.4251 -390.354 -97.2142 -389.979 -96.8392C-389.604 -96.4642 -389.393 -95.9563 -389.393 -95.4251C-389.393 -94.8977 -389.604 -94.386 -389.979 -94.011C-390.354 -93.636 -390.862 -93.425 -391.393 -93.425L-413.042 -93.429ZM-413.042 -65.128H-413.045C-414.151 -65.128 -415.045 -66.0225 -415.045 -67.128C-415.045 -68.2296 -414.151 -69.128 -413.045 -69.128H-396.936C-396.405 -69.128 -395.897 -68.9171 -395.522 -68.5421C-395.147 -68.1671 -394.936 -67.6553 -394.936 -67.128C-394.936 -66.5967 -395.147 -66.085 -395.522 -65.71C-395.897 -65.335 -396.405 -65.1279 -396.936 -65.1279L-413.042 -65.128ZM-413.042 -50.98L-413.045 -50.9761C-414.151 -50.9761 -415.045 -51.8706 -415.045 -52.9761C-415.045 -54.0816 -414.151 -54.9761 -413.045 -54.9761H-396.936C-396.405 -54.9761 -395.897 -54.7652 -395.522 -54.3902C-395.147 -54.0152 -394.936 -53.5073 -394.936 -52.9761C-394.936 -52.4448 -395.147 -51.937 -395.522 -51.562C-395.897 -51.187 -396.405 -50.976 -396.936 -50.976L-413.042 -50.98ZM-375.401 -99.523H-361.003L-378.62 -117.16V-102.762C-378.62 -100.981 -377.182 -99.5347 -375.401 -99.523ZM-358.159 -48.363V-95.523H-375.401C-379.393 -95.5308 -382.627 -98.7652 -382.635 -102.757V-119.991H-423.459C-425.24 -119.988 -426.686 -118.542 -426.697 -116.761V-41.5929C-426.689 -39.8077 -425.244 -38.3624 -423.459 -38.3585H-363.943L-365.498 -39.9093L-365.494 -39.9132C-367.13 -41.5616 -367.591 -44.046 -366.658 -46.171L-368.025 -47.5421V-47.546C-373.568 -43.4054 -381.31 -43.964 -386.205 -48.8585C-391.643 -54.2999 -391.643 -63.1165 -386.205 -68.5535C-380.764 -73.991 -371.947 -73.991 -366.51 -68.5535C-361.616 -63.6629 -361.057 -55.9165 -365.194 -50.3695L-363.823 -48.9945C-361.959 -49.8265 -359.791 -49.5883 -358.158 -48.3656L-358.159 -48.363ZM-532.859 -86.183C-533.948 -86.3432 -534.706 -87.351 -534.554 -88.4408C-534.398 -89.5306 -533.386 -90.2885 -532.296 -90.1361L-523.62 -88.9017H-523.624C-523.003 -88.8119 -522.46 -88.433 -522.155 -87.8822C-521.855 -87.3353 -521.827 -86.6713 -522.085 -86.101L-525.316 -78.058C-525.73 -77.0307 -526.894 -76.5346 -527.917 -76.9447C-528.941 -77.3588 -529.433 -78.5228 -529.023 -79.5463L-527.913 -82.3119L-555.296 -66.5109C-556.249 -65.964 -557.464 -66.2882 -558.019 -67.2375C-558.285 -67.6945 -558.359 -68.2375 -558.222 -68.7492C-558.085 -69.2609 -557.749 -69.6984 -557.292 -69.964L-529.909 -85.776L-532.859 -86.183ZM-522.984 -69.492H-526.964V-48.293H-522.984V-69.492ZM-528.964 -73.492H-520.987V-73.4959C-520.456 -73.4959 -519.948 -73.285 -519.573 -72.91C-519.198 -72.535 -518.987 -72.0272 -518.987 -71.4959V-46.2969C-518.987 -45.7656 -519.198 -45.2539 -519.573 -44.8789C-519.948 -44.5039 -520.456 -44.2968 -520.987 -44.2968H-528.964C-530.066 -44.2968 -530.964 -45.1914 -530.964 -46.2968V-71.4958C-530.964 -72.5974 -530.066 -73.4958 -528.964 -73.4958V-73.492ZM-537.183 -63.5662H-541.163V-48.2932H-537.183V-63.5662ZM-543.163 -67.5662H-535.179L-535.183 -67.5701C-534.652 -67.5701 -534.144 -67.3592 -533.765 -66.9842C-533.39 -66.6092 -533.183 -66.0975 -533.183 -65.5701V-46.3001C-533.183 -45.7688 -533.39 -45.261 -533.765 -44.886C-534.144 -44.5071 -534.652 -44.3 -535.183 -44.3H-543.167H-543.163C-544.269 -44.3 -545.163 -45.1946 -545.163 -46.3V-65.57C-545.163 -66.6716 -544.269 -67.57 -543.163 -67.57V-67.5662ZM-551.378 -58.5662H-555.359V-48.2892H-551.378V-58.5662ZM-557.359 -62.5662H-549.382V-62.5701C-548.851 -62.5701 -548.343 -62.3592 -547.968 -61.9842C-547.593 -61.6092 -547.382 -61.0975 -547.382 -60.5701V-46.2851C-547.382 -45.7577 -547.593 -45.246 -547.968 -44.871C-548.343 -44.496 -548.851 -44.285 -549.382 -44.285H-557.363C-558.464 -44.285 -559.363 -45.1835 -559.363 -46.285V-60.57C-559.363 -61.6716 -558.464 -62.57 -557.363 -62.57L-557.359 -62.5662ZM-521.273 -98.2692H-505.886L-524.769 -117.152V-101.765L-524.773 -101.769C-524.765 -99.8433 -523.202 -98.2808 -521.276 -98.273L-521.273 -98.2692ZM-528.773 -119.984H-571.773L-571.777 -119.988C-573.706 -119.984 -575.273 -118.422 -575.28 -116.488V-37.4881C-575.273 -35.5545 -573.706 -33.992 -571.777 -33.9842H-506.55C-504.616 -33.992 -503.053 -35.5584 -503.05 -37.4881V-94.2731H-521.273C-525.409 -94.2809 -528.765 -97.6364 -528.773 -101.773L-528.773 -119.984ZM-666.513 -65.6562H-666.517C-665.649 -66.3359 -664.399 -66.1875 -663.716 -65.3281C-663.036 -64.4648 -663.181 -63.2148 -664.044 -62.5273L-674.423 -54.3398V-54.3437C-675.228 -53.7109 -676.38 -53.789 -677.095 -54.5234L-681.45 -59.0195H-681.446C-682.208 -59.8164 -682.185 -61.0781 -681.392 -61.8437C-680.595 -62.6054 -679.333 -62.5781 -678.568 -61.7851L-675.474 -58.5859L-666.513 -65.6562ZM-687.622 -69.8242C-687.622 -70.9258 -686.727 -71.8242 -685.622 -71.8242H-669.911C-669.383 -71.8242 -668.872 -71.6133 -668.497 -71.2383C-668.122 -70.8633 -667.911 -70.3515 -667.911 -69.8242C-667.911 -69.2929 -668.122 -68.7851 -668.497 -68.4101C-668.872 -68.0351 -669.383 -67.8241 -669.911 -67.8241H-683.626V-51.4691H-667.271V-55.1722H-667.275C-667.275 -56.2777 -666.376 -57.1722 -665.275 -57.1722C-664.743 -57.1722 -664.235 -56.9613 -663.86 -56.5863C-663.485 -56.2113 -663.275 -55.7035 -663.275 -55.1722V-49.473C-663.275 -48.9417 -663.485 -48.4339 -663.86 -48.0589C-664.235 -47.6839 -664.743 -47.4729 -665.275 -47.4729H-685.623C-686.728 -47.4729 -687.623 -48.3675 -687.623 -49.4729L-687.622 -69.8242ZM-713.048 -77.2109C-714.153 -77.2109 -715.048 -78.1054 -715.048 -79.2109C-715.048 -80.3164 -714.153 -81.2109 -713.048 -81.2109H-665.267H-665.271C-664.739 -81.2109 -664.231 -81 -663.856 -80.625C-663.481 -80.25 -663.271 -79.7421 -663.271 -79.2109C-663.271 -78.6796 -663.481 -78.1718 -663.856 -77.7968C-664.231 -77.4218 -664.739 -77.2108 -665.271 -77.2108L-713.048 -77.2109ZM-713.048 -92.0819C-714.153 -92.0819 -715.048 -92.9764 -715.048 -94.0819C-715.048 -95.1874 -714.153 -96.0819 -713.048 -96.0819H-690.298C-689.766 -96.0819 -689.259 -95.871 -688.884 -95.496C-688.509 -95.121 -688.298 -94.6132 -688.298 -94.0819C-688.298 -93.5506 -688.509 -93.0428 -688.884 -92.6678C-689.259 -92.2928 -689.766 -92.0818 -690.298 -92.0818L-713.048 -92.0819ZM-713.048 -62.3399C-714.153 -62.3399 -715.048 -63.2344 -715.048 -64.3399C-715.048 -65.4454 -714.153 -66.3399 -713.048 -66.3399H-696.118H-696.122C-695.59 -66.3399 -695.082 -66.129 -694.707 -65.754C-694.332 -65.379 -694.122 -64.8712 -694.122 -64.3399C-694.122 -63.8086 -694.332 -63.3008 -694.707 -62.9258C-695.082 -62.5508 -695.59 -62.3398 -696.122 -62.3398L-713.048 -62.3399ZM-713.048 -47.4689C-714.153 -47.4689 -715.048 -48.3634 -715.048 -49.4689C-715.048 -50.5744 -714.153 -51.4689 -713.048 -51.4689H-696.118H-696.122C-695.59 -51.4689 -695.082 -51.258 -694.707 -50.883C-694.332 -50.508 -694.122 -50.0002 -694.122 -49.4689C-694.122 -48.9376 -694.332 -48.4298 -694.707 -48.0548C-695.082 -47.6798 -695.59 -47.4688 -696.122 -47.4688L-713.048 -47.4689ZM-671.259 -98.2699H-655.872L-674.755 -117.153V-101.766H-674.759C-674.755 -99.8362 -673.192 -98.2737 -671.262 -98.2698L-671.259 -98.2699ZM-678.759 -119.985H-721.775C-723.704 -119.977 -725.267 -118.415 -725.275 -116.485V-37.4849C-725.267 -35.5552 -723.704 -33.9888 -721.775 -33.981H-656.548C-654.614 -33.9888 -653.052 -35.5513 -653.044 -37.4849V-94.2739H-671.267C-675.403 -94.2817 -678.759 -97.6372 -678.767 -101.774L-678.759 -119.985ZM-836.319 -79.0629C-835.116 -80.2699 -833.475 -80.9496 -831.768 -80.9496C-830.061 -80.9496 -828.42 -80.2699 -827.213 -79.0629C-824.705 -76.5473 -824.705 -72.4731 -827.213 -69.9574C-829.729 -67.4457 -833.803 -67.4457 -836.319 -69.9574C-838.83 -72.473 -838.83 -76.5472 -836.319 -79.0629ZM-831.768 -76.9457C-832.752 -76.9457 -833.639 -76.3519 -834.018 -75.4418C-834.393 -74.5316 -834.186 -73.4848 -833.491 -72.7856C-832.791 -72.0903 -831.744 -71.8833 -830.834 -72.2622C-829.928 -72.6372 -829.334 -73.5239 -829.33 -74.5083C-829.33 -75.1567 -829.588 -75.7778 -830.045 -76.2349C-830.502 -76.692 -831.123 -76.9457 -831.768 -76.9457ZM-821.26 -98.2696H-805.873L-824.756 -117.153V-101.766H-824.76C-824.752 -99.8359 -823.189 -98.2773 -821.264 -98.2695L-821.26 -98.2696ZM-828.752 -119.985H-871.779C-873.709 -119.981 -875.275 -118.414 -875.279 -116.485V-37.4846C-875.275 -35.5549 -873.713 -33.9885 -871.779 -33.9807H-806.552C-804.622 -33.9885 -803.056 -35.5549 -803.056 -37.4846V-94.2736H-821.283C-825.42 -94.2814 -828.771 -97.6369 -828.775 -101.774L-828.752 -119.985ZM74.1479 56.6554H84.3629L72.058 44.3464V54.5654C72.0619 55.7177 72.9956 56.6515 74.1479 56.6554ZM45.429 63.0343C44.3235 63.0343 43.429 62.1398 43.429 61.0343C43.429 59.9288 44.3235 59.0343 45.429 59.0343H61.6089C62.7144 59.0343 63.6089 59.9288 63.6089 61.0343C63.6089 62.1398 62.7144 63.0343 61.6089 63.0343H45.429ZM98.339 70.0343H23.319C22.7682 70.0343 22.319 70.4835 22.319 71.0343V72.1632C22.319 72.4288 22.4244 72.6827 22.6119 72.8702C22.7994 73.0577 23.0533 73.1632 23.319 73.1632H98.3419C98.6036 73.1632 98.8615 73.0577 99.049 72.8702C99.2365 72.6827 99.3419 72.4288 99.3419 72.1632V71.0343C99.3419 70.7687 99.2365 70.5148 99.049 70.3273C98.8615 70.1398 98.6036 70.0343 98.3419 70.0343H98.339ZM34.464 77.1749V102.413C34.4679 103.565 35.4015 104.503 36.5577 104.503H85.1047C86.2571 104.499 87.1907 103.565 87.1946 102.413H87.2063V77.1749H34.464ZM87.2059 66.0459V60.6592H74.147C70.7876 60.6514 68.061 57.9287 68.0531 54.5654V41.5184H36.5571C35.4009 41.5223 34.4674 42.4559 34.4634 43.6122V66.0422L87.2059 66.0459ZM221.226 30.0109H178.21C176.28 30.0187 174.718 31.5812 174.714 33.5148V112.515C174.722 114.445 176.28 116.007 178.21 116.011H243.437C245.37 116.007 246.933 114.445 246.941 112.515V55.7258H228.722C224.581 55.718 221.23 52.3664 221.222 48.2258L221.226 30.0109ZM-371.274 51.7259H-355.887L-374.77 32.8429V48.2299L-374.774 48.226C-374.766 50.1557 -373.204 51.7181 -371.274 51.7259ZM-353.047 55.7259H-371.274C-375.411 55.7181 -378.762 52.3626 -378.77 48.2259V30.0109H-421.782C-423.716 30.0148 -425.278 31.5812 -425.282 33.5148V112.515C-425.278 114.445 -423.712 116.007 -421.782 116.011H-356.555C-354.625 116.007 -353.067 114.445 -353.059 112.515L-353.047 55.7259ZM-863.127 -86.7441H-815.205C-814.674 -86.7441 -814.166 -86.5332 -813.791 -86.1582C-813.416 -85.7832 -813.205 -85.2754 -813.205 -84.7441V-48.5211C-813.205 -47.9937 -813.416 -47.482 -813.791 -47.107C-814.166 -46.732 -814.674 -46.521 -815.205 -46.521H-863.127C-864.233 -46.521 -865.127 -47.4195 -865.127 -48.521V-84.744C-865.127 -85.8456 -864.233 -86.7441 -863.127 -86.7441ZM-839.092 -50.5211H-817.209V-54.7945L-824.631 -62.2164L-824.627 -62.2203C-825.393 -62.9781 -826.627 -62.9781 -827.389 -62.2203L-832.979 -56.6305L-839.092 -50.5211ZM-861.131 -68.0411L-861.127 -50.5211H-844.748L-837.225 -58.0445L-851.084 -71.9035V-71.9074C-852.795 -73.6027 -855.553 -73.6027 -857.26 -71.9074L-861.131 -68.0411ZM-817.209 -82.7521H-861.131V-73.6974L-860.092 -74.7365C-856.819 -77.9982 -851.529 -77.9982 -848.26 -74.7365L-834.397 -60.8735L-830.217 -65.0454V-65.0493C-827.893 -67.3696 -824.127 -67.3696 -821.799 -65.0493L-817.198 -60.4477L-817.209 -82.7521ZM-967.559 -98.2791H-952.172L-971.055 -117.162V-101.775V-101.779C-971.051 -99.8493 -969.489 -98.2869 -967.559 -98.2791ZM-995.723 -90.7752C-999.379 -94.4314 -1004.34 -96.4861 -1009.51 -96.4861C-1014.68 -96.4861 -1019.63 -94.4314 -1023.29 -90.7752C-1026.95 -87.119 -1029 -82.1619 -1029 -76.9942C-1029 -71.8223 -1026.95 -66.8652 -1023.29 -63.2132C-1019.63 -59.557 -1014.68 -57.5062 -1009.51 -57.5062C-1004.34 -57.5062 -999.379 -59.557 -995.723 -63.2132C-992.071 -66.8694 -990.02 -71.8265 -990.02 -76.9942C-990.02 -82.1622 -992.071 -87.1192 -995.723 -90.7752ZM-1021.56 -56.8303V-37.4903V-37.4942C-1021.56 -35.5645 -1020 -33.9981 -1018.07 -33.9903H-952.844C-950.91 -33.9981 -949.348 -35.5645 -949.344 -37.4942H-949.332V-94.2712H-967.559C-971.696 -94.279 -975.051 -97.6345 -975.055 -101.771V-119.986H-1018.07V-119.99C-1020 -119.986 -1021.56 -118.42 -1021.56 -116.49V-97.1461C-1017.92 -99.3336 -1013.75 -100.486 -1009.51 -100.482C-1003.28 -100.478 -997.305 -98.0015 -992.899 -93.5953C-988.497 -89.1891 -986.024 -83.2163 -986.024 -76.9863C-986.024 -70.7563 -988.497 -64.7833 -992.903 -60.3773C-997.306 -55.975 -1003.28 -53.4984 -1009.51 -53.4984C-1013.76 -53.4906 -1017.93 -54.6429 -1021.57 -56.8265L-1021.56 -56.8303ZM371.237 30.0057H328.237L328.233 30.0018C326.303 30.0096 324.737 31.5721 324.729 33.5057V112.506C324.737 114.439 326.303 116.002 328.233 116.006H393.46C395.39 115.998 396.952 114.435 396.96 112.506V55.7247H378.737C374.6 55.7169 371.245 52.3653 371.237 48.2247L371.237 30.0057ZM204.707 69.2637C204.336 69.6504 203.824 69.8692 203.285 69.8731C202.75 69.877 202.234 69.666 201.855 69.2871C201.476 68.9082 201.266 68.3926 201.269 67.8574C201.273 67.3184 201.496 66.8066 201.879 66.4355L209.539 58.7753C210.32 57.9941 211.586 57.9941 212.367 58.7753L220.031 66.4355H220.035C220.816 67.2168 220.816 68.4824 220.031 69.2636C219.25 70.0449 217.984 70.0449 217.203 69.2636L212.879 64.9355L212.691 77.3065V77.3104C212.742 77.8729 212.551 78.4276 212.168 78.8416C211.781 79.2596 211.242 79.4901 210.676 79.4823C210.113 79.4784 209.574 79.2323 209.203 78.8104C208.828 78.3846 208.648 77.826 208.711 77.2635L208.891 65.0795L204.707 69.2637ZM45.427 84.1777C44.3215 84.1777 43.427 83.2832 43.427 82.1777C43.427 81.0761 44.3215 80.1777 45.427 80.1777H76.2279C77.3334 80.1777 78.2279 81.0761 78.2279 82.1777C78.2279 83.2832 77.3334 84.1777 76.2279 84.1777H45.427Z" fill="#43A047"/>
</svg>
